<svg width="378" height="264" viewBox="0 0 378 264" fill="none" xmlns="http://www.w3.org/2000/svg">
<path d="M278.464 41.6635C296.726 23.4017 326.334 23.4017 344.596 41.6635C362.858 59.9254 362.858 89.5336 344.596 107.795L254.635 197.756L188.503 131.624L278.464 41.6635Z" fill="#FFAE71"/>
<path d="M98.6982 222.592C80.5284 240.762 51.0693 240.762 32.8994 222.592C14.7296 204.422 14.7296 174.963 32.8994 156.793L123.027 66.6657L188.826 132.465L98.6982 222.592Z" fill="#6EC4EA"/>
<path d="M254.306 65.6861C245.598 57.0601 235.275 50.2338 223.929 45.597C212.582 40.9601 200.433 38.6036 188.176 38.6619C175.919 38.7202 163.793 41.1922 152.491 45.9368C141.189 50.6813 130.932 57.6055 122.306 66.3139C113.68 75.0224 106.854 85.3446 102.217 96.6912C97.5802 108.038 95.2237 120.187 95.282 132.444C95.3403 144.701 97.8123 156.827 102.557 168.129C107.301 179.431 114.226 189.688 122.934 198.314L188.62 132L254.306 65.6861Z" fill="#017ABF"/>
<path d="M122.934 198.314C140.522 215.735 164.309 225.456 189.064 225.338C213.819 225.22 237.513 215.274 254.934 197.686C272.355 180.099 282.076 156.311 281.958 131.556C281.84 106.801 271.894 83.1071 254.306 65.6861L188.62 132L122.934 198.314Z" fill="#F17C1D"/>
</svg>
