<svg width="48" height="48" viewBox="0 0 48 48" fill="none" xmlns="http://www.w3.org/2000/svg">
  <circle cx="24" cy="24" r="24" fill="#017ABF"/>
  <path d="M35.5 13.5C38.8 16.8 38.8 22.1 35.5 25.4L28 32.9L22.2 27.1L29.7 19.6C31.3 18 31.3 15.4 29.7 13.8C28.1 12.2 25.5 12.2 23.9 13.8L16.4 21.3L10.6 15.5L18.1 8C21.4 4.7 26.7 4.7 30 8L35.5 13.5Z" fill="#FFAE71"/>
  <path d="M12.5 34.5C9.2 31.2 9.2 25.9 12.5 22.6L20 15.1L25.8 20.9L18.3 28.4C16.7 30 16.7 32.6 18.3 34.2C19.9 35.8 22.5 35.8 24.1 34.2L31.6 26.7L37.4 32.5L29.9 40C26.6 43.3 21.3 43.3 18 40L12.5 34.5Z" fill="#6EC4EA"/>
  <circle cx="24" cy="24" r="8" fill="#F17C1D"/>
</svg>
