<svg xmlns="http://www.w3.org/2000/svg" width="777" height="336" viewBox="0 0 777 336" fill="none"><path d="M278.464 41.6635C296.726 23.4017 326.334 23.4017 344.596 41.6635V41.6635C362.858 59.9254 362.858 89.5336 344.596 107.795L254.635 197.756L188.503 131.624L278.464 41.6635Z" fill="#FFAE71"></path><path d="M98.6982 222.592C80.5284 240.762 51.0693 240.762 32.8994 222.592V222.592C14.7296 204.422 14.7296 174.963 32.8994 156.793L123.027 66.6658L188.826 132.465L98.6982 222.592Z" fill="#6EC4EA"></path><path d="M254.306 65.6861C245.598 57.0601 235.276 50.2338 223.929 45.597C212.582 40.9601 200.434 38.6036 188.176 38.6619C175.919 38.7202 163.793 41.1922 152.491 45.9368C141.189 50.6813 130.932 57.6055 122.306 66.3139C113.68 75.0224 106.854 85.3446 102.217 96.6912C97.5803 108.038 95.2237 120.187 95.2821 132.444C95.3404 144.701 97.8123 156.827 102.557 168.129C107.301 179.431 114.226 189.688 122.934 198.314L188.62 132L254.306 65.6861Z" fill="#017ABF"></path><path d="M122.934 198.314C140.522 215.735 164.309 225.456 189.064 225.338C213.819 225.22 237.513 215.274 254.934 197.686C272.355 180.099 282.076 156.311 281.958 131.556C281.84 106.801 271.894 83.1071 254.306 65.6861L188.62 132L122.934 198.314Z" fill="#F17C1D"></path><path d="M250.725 221.408C245.861 221.408 241.509 220.256 237.669 217.952C233.914 215.563 231.44 212.448 230.245 208.608L231.653 203.36V209.632C231.653 213.387 230.672 216.245 228.709 218.208C226.832 220.171 224.101 221.152 220.517 221.152C216.848 221.152 214.032 220.171 212.069 218.208C210.192 216.245 209.253 213.387 209.253 209.632V140.128C209.253 136.373 210.234 133.515 212.197 131.552C214.16 129.589 216.933 128.608 220.517 128.608C224.186 128.608 227.002 129.589 228.965 131.552C231.013 133.515 232.037 136.373 232.037 140.128V167.52H230.501C231.781 164.021 234.298 161.163 238.053 158.944C241.808 156.725 246.032 155.616 250.725 155.616C256.186 155.616 260.965 156.939 265.061 159.584C269.242 162.229 272.485 165.984 274.789 170.848C277.093 175.712 278.245 181.6 278.245 188.512C278.245 195.253 277.093 201.099 274.789 206.048C272.485 210.997 269.242 214.795 265.061 217.44C260.965 220.085 256.186 221.408 250.725 221.408ZM243.557 204.64C245.861 204.64 247.866 204.085 249.573 202.976C251.365 201.781 252.773 200.032 253.797 197.728C254.821 195.339 255.333 192.267 255.333 188.512C255.333 182.795 254.224 178.699 252.005 176.224C249.786 173.664 246.97 172.384 243.557 172.384C241.253 172.384 239.205 172.939 237.413 174.048C235.621 175.157 234.213 176.907 233.189 179.296C232.165 181.6 231.653 184.672 231.653 188.512C231.653 194.144 232.762 198.24 234.981 200.8C237.2 203.36 240.058 204.64 243.557 204.64ZM323.316 221.408C318.452 221.408 314.143 220.512 310.388 218.72C306.719 216.928 303.817 214.496 301.684 211.424C299.636 208.267 298.612 204.683 298.612 200.672C298.612 196.064 299.807 192.437 302.196 189.792C304.585 187.147 308.425 185.269 313.716 184.16C319.007 182.965 326.047 182.368 334.836 182.368H341.876V193.12H334.836C331.508 193.12 328.735 193.376 326.516 193.888C324.383 194.315 322.804 195.04 321.78 196.064C320.756 197.003 320.244 198.24 320.244 199.776C320.244 201.739 320.927 203.36 322.292 204.64C323.743 205.92 325.791 206.56 328.436 206.56C330.569 206.56 332.447 206.091 334.068 205.152C335.775 204.213 337.14 202.933 338.164 201.312C339.188 199.605 339.7 197.643 339.7 195.424V180.576C339.7 177.504 338.889 175.328 337.268 174.048C335.732 172.768 333.044 172.128 329.204 172.128C327.156 172.128 324.852 172.384 322.292 172.896C319.732 173.323 316.873 174.133 313.716 175.328C311.412 176.181 309.449 176.309 307.828 175.712C306.207 175.115 304.927 174.091 303.988 172.64C303.135 171.189 302.708 169.611 302.708 167.904C302.793 166.197 303.348 164.576 304.372 163.04C305.481 161.504 307.145 160.309 309.364 159.456C313.46 157.92 317.215 156.896 320.628 156.384C324.127 155.872 327.327 155.616 330.228 155.616C337.225 155.616 342.985 156.64 347.508 158.688C352.116 160.651 355.529 163.723 357.748 167.904C360.052 172 361.204 177.291 361.204 183.776V209.632C361.204 213.387 360.308 216.245 358.516 218.208C356.724 220.171 354.121 221.152 350.708 221.152C347.209 221.152 344.521 220.171 342.644 218.208C340.852 216.245 339.956 213.387 339.956 209.632V206.304L340.724 208.096C340.297 210.827 339.316 213.173 337.78 215.136C336.244 217.099 334.239 218.635 331.764 219.744C329.289 220.853 326.473 221.408 323.316 221.408ZM398.498 221.152C394.914 221.152 392.141 220.171 390.178 218.208C388.215 216.245 387.234 213.387 387.234 209.632V167.264C387.234 163.595 388.173 160.779 390.05 158.816C392.013 156.853 394.786 155.872 398.37 155.872C401.954 155.872 404.685 156.853 406.562 158.816C408.439 160.779 409.378 163.595 409.378 167.264V174.304L407.97 168.032C409.762 164.277 412.407 161.291 415.906 159.072C419.49 156.768 423.714 155.616 428.578 155.616C433.186 155.616 437.111 156.725 440.354 158.944C443.682 161.163 446.071 164.533 447.522 169.056H445.73C447.693 164.875 450.637 161.589 454.562 159.2C458.487 156.811 462.839 155.616 467.618 155.616C472.567 155.616 476.621 156.597 479.778 158.56C482.935 160.437 485.282 163.424 486.818 167.52C488.439 171.531 489.25 176.608 489.25 182.752V209.632C489.25 213.387 488.226 216.245 486.178 218.208C484.215 220.171 481.399 221.152 477.73 221.152C474.146 221.152 471.373 220.171 469.41 218.208C467.447 216.245 466.466 213.387 466.466 209.632V183.392C466.466 179.723 465.911 177.077 464.802 175.456C463.693 173.835 461.858 173.024 459.298 173.024C456.141 173.024 453.709 174.133 452.002 176.352C450.381 178.571 449.57 181.728 449.57 185.824V209.632C449.57 213.387 448.589 216.245 446.626 218.208C444.663 220.171 441.847 221.152 438.178 221.152C434.509 221.152 431.693 220.171 429.73 218.208C427.767 216.245 426.786 213.387 426.786 209.632V183.392C426.786 179.723 426.231 177.077 425.122 175.456C424.013 173.835 422.178 173.024 419.618 173.024C416.546 173.024 414.157 174.133 412.45 176.352C410.829 178.571 410.018 181.728 410.018 185.824V209.632C410.018 217.312 406.178 221.152 398.498 221.152ZM556.75 221.408C551.886 221.408 547.534 220.256 543.694 217.952C539.939 215.563 537.465 212.448 536.27 208.608L537.678 203.36V209.632C537.678 213.387 536.697 216.245 534.734 218.208C532.857 220.171 530.126 221.152 526.542 221.152C522.873 221.152 520.057 220.171 518.094 218.208C516.217 216.245 515.278 213.387 515.278 209.632V140.128C515.278 136.373 516.259 133.515 518.222 131.552C520.185 129.589 522.958 128.608 526.542 128.608C530.211 128.608 533.027 129.589 534.99 131.552C537.038 133.515 538.062 136.373 538.062 140.128V167.52H536.526C537.806 164.021 540.323 161.163 544.078 158.944C547.833 156.725 552.057 155.616 556.75 155.616C562.211 155.616 566.99 156.939 571.086 159.584C575.267 162.229 578.51 165.984 580.814 170.848C583.118 175.712 584.27 181.6 584.27 188.512C584.27 195.253 583.118 201.099 580.814 206.048C578.51 210.997 575.267 214.795 571.086 217.44C566.99 220.085 562.211 221.408 556.75 221.408ZM549.582 204.64C551.886 204.64 553.891 204.085 555.598 202.976C557.39 201.781 558.798 200.032 559.822 197.728C560.846 195.339 561.358 192.267 561.358 188.512C561.358 182.795 560.249 178.699 558.03 176.224C555.811 173.664 552.995 172.384 549.582 172.384C547.278 172.384 545.23 172.939 543.438 174.048C541.646 175.157 540.238 176.907 539.214 179.296C538.19 181.6 537.678 184.672 537.678 188.512C537.678 194.144 538.787 198.24 541.006 200.8C543.225 203.36 546.083 204.64 549.582 204.64ZM639.325 221.408C632.328 221.408 626.226 220.085 621.021 217.44C615.816 214.795 611.762 210.997 608.861 206.048C605.96 201.099 604.509 195.253 604.509 188.512C604.509 183.392 605.32 178.827 606.941 174.816C608.562 170.72 610.909 167.264 613.981 164.448C617.053 161.547 620.722 159.371 624.989 157.92C629.256 156.384 634.034 155.616 639.325 155.616C646.322 155.616 652.424 156.939 657.629 159.584C662.834 162.229 666.845 166.027 669.661 170.976C672.562 175.84 674.013 181.685 674.013 188.512C674.013 193.547 673.202 198.112 671.581 202.208C669.96 206.304 667.613 209.803 664.541 212.704C661.554 215.52 657.885 217.696 653.533 219.232C649.266 220.683 644.53 221.408 639.325 221.408ZM639.325 204.64C641.629 204.64 643.677 204.085 645.469 202.976C647.261 201.781 648.626 200.032 649.565 197.728C650.589 195.339 651.101 192.267 651.101 188.512C651.101 182.795 649.992 178.699 647.773 176.224C645.554 173.664 642.738 172.384 639.325 172.384C637.021 172.384 634.973 172.939 633.181 174.048C631.389 175.157 629.981 176.907 628.957 179.296C627.933 181.6 627.421 184.672 627.421 188.512C627.421 194.144 628.53 198.24 630.749 200.8C632.968 203.36 635.826 204.64 639.325 204.64ZM729.125 221.408C722.128 221.408 716.026 220.085 710.821 217.44C705.616 214.795 701.562 210.997 698.661 206.048C695.76 201.099 694.309 195.253 694.309 188.512C694.309 183.392 695.12 178.827 696.741 174.816C698.362 170.72 700.709 167.264 703.781 164.448C706.853 161.547 710.522 159.371 714.789 157.92C719.056 156.384 723.834 155.616 729.125 155.616C736.122 155.616 742.224 156.939 747.429 159.584C752.634 162.229 756.645 166.027 759.461 170.976C762.362 175.84 763.813 181.685 763.813 188.512C763.813 193.547 763.002 198.112 761.381 202.208C759.76 206.304 757.413 209.803 754.341 212.704C751.354 215.52 747.685 217.696 743.333 219.232C739.066 220.683 734.33 221.408 729.125 221.408ZM729.125 204.64C731.429 204.64 733.477 204.085 735.269 202.976C737.061 201.781 738.426 200.032 739.365 197.728C740.389 195.339 740.901 192.267 740.901 188.512C740.901 182.795 739.792 178.699 737.573 176.224C735.354 173.664 732.538 172.384 729.125 172.384C726.821 172.384 724.773 172.939 722.981 174.048C721.189 175.157 719.781 176.907 718.757 179.296C717.733 181.6 717.221 184.672 717.221 188.512C717.221 194.144 718.33 198.24 720.549 200.8C722.768 203.36 725.626 204.64 729.125 204.64Z" fill="black"></path><path d="M220.901 312.152C217.146 312.152 214.245 311.171 212.197 309.208C210.234 307.245 209.253 304.387 209.253 300.632V258.264C209.253 254.595 210.192 251.779 212.069 249.816C214.032 247.853 216.805 246.872 220.389 246.872C223.973 246.872 226.704 247.853 228.581 249.816C230.458 251.779 231.397 254.595 231.397 258.264V263.512H230.117C230.97 258.392 233.146 254.339 236.645 251.352C240.229 248.365 244.666 246.787 249.957 246.616C252.432 246.531 254.266 247.171 255.461 248.536C256.741 249.816 257.424 252.248 257.509 255.832C257.509 258.904 256.869 261.336 255.589 263.128C254.309 264.92 251.877 265.987 248.293 266.328L245.349 266.584C240.826 267.011 237.541 268.291 235.493 270.424C233.445 272.472 232.421 275.544 232.421 279.64V300.632C232.421 304.387 231.44 307.245 229.477 309.208C227.514 311.171 224.656 312.152 220.901 312.152ZM310.732 312.408C303.052 312.408 296.396 311.085 290.764 308.44C285.217 305.709 280.951 301.869 277.964 296.92C274.977 291.971 273.484 286.125 273.484 279.384C273.484 272.899 274.892 267.224 277.708 262.36C280.609 257.411 284.535 253.571 289.484 250.84C294.519 248.024 300.236 246.616 306.636 246.616C311.329 246.616 315.596 247.384 319.436 248.92C323.276 250.371 326.561 252.547 329.292 255.448C332.023 258.264 334.071 261.677 335.436 265.688C336.887 269.699 337.612 274.179 337.612 279.128C337.612 280.835 337.143 282.115 336.204 282.968C335.265 283.736 333.772 284.12 331.724 284.12H292.556V273.368H320.972L318.924 275.032C318.924 271.875 318.497 269.315 317.644 267.352C316.791 265.389 315.511 263.896 313.804 262.872C312.183 261.848 310.135 261.336 307.66 261.336C305.015 261.336 302.711 261.976 300.748 263.256C298.871 264.451 297.42 266.243 296.396 268.632C295.372 271.021 294.86 274.008 294.86 277.592V278.744C294.86 284.803 296.183 289.155 298.828 291.8C301.559 294.36 305.74 295.64 311.372 295.64C313.249 295.64 315.383 295.427 317.772 295C320.247 294.488 322.593 293.805 324.812 292.952C327.031 292.099 328.951 291.971 330.572 292.568C332.193 293.08 333.431 294.019 334.284 295.384C335.223 296.664 335.735 298.157 335.82 299.864C335.905 301.485 335.521 303.107 334.668 304.728C333.815 306.264 332.407 307.459 330.444 308.312C327.457 309.677 324.257 310.701 320.844 311.384C317.516 312.067 314.145 312.408 310.732 312.408ZM371.492 335.192C367.908 335.192 365.135 334.211 363.172 332.248C361.209 330.285 360.228 327.427 360.228 323.672V258.264C360.228 254.595 361.167 251.779 363.044 249.816C365.007 247.853 367.78 246.872 371.364 246.872C375.033 246.872 377.807 247.853 379.684 249.816C381.647 251.779 382.628 254.595 382.628 258.264V265.688L381.22 259.416C382.415 255.576 384.889 252.504 388.644 250.2C392.484 247.811 396.836 246.616 401.7 246.616C407.161 246.616 411.94 247.939 416.036 250.584C420.217 253.229 423.46 256.984 425.764 261.848C428.068 266.712 429.22 272.6 429.22 279.512C429.22 286.253 428.068 292.099 425.764 297.048C423.46 301.997 420.217 305.795 416.036 308.44C411.94 311.085 407.161 312.408 401.7 312.408C397.007 312.408 392.783 311.299 389.028 309.08C385.273 306.861 382.756 303.96 381.476 300.376H383.012V323.672C383.012 327.427 381.988 330.285 379.94 332.248C377.977 334.211 375.161 335.192 371.492 335.192ZM394.532 295.64C396.836 295.64 398.841 295.085 400.548 293.976C402.34 292.781 403.748 291.032 404.772 288.728C405.796 286.339 406.308 283.267 406.308 279.512C406.308 273.795 405.199 269.699 402.98 267.224C400.761 264.664 397.945 263.384 394.532 263.384C392.228 263.384 390.18 263.939 388.388 265.048C386.596 266.157 385.188 267.907 384.164 270.296C383.14 272.6 382.628 275.672 382.628 279.512C382.628 285.144 383.737 289.24 385.956 291.8C388.175 294.36 391.033 295.64 394.532 295.64ZM484.275 312.408C477.278 312.408 471.176 311.085 465.971 308.44C460.766 305.795 456.712 301.997 453.811 297.048C450.91 292.099 449.459 286.253 449.459 279.512C449.459 274.392 450.27 269.827 451.891 265.816C453.512 261.72 455.859 258.264 458.931 255.448C462.003 252.547 465.672 250.371 469.939 248.92C474.206 247.384 478.984 246.616 484.275 246.616C491.272 246.616 497.374 247.939 502.579 250.584C507.784 253.229 511.795 257.027 514.611 261.976C517.512 266.84 518.963 272.685 518.963 279.512C518.963 284.547 518.152 289.112 516.531 293.208C514.91 297.304 512.563 300.803 509.491 303.704C506.504 306.52 502.835 308.696 498.483 310.232C494.216 311.683 489.48 312.408 484.275 312.408ZM484.275 295.64C486.579 295.64 488.627 295.085 490.419 293.976C492.211 292.781 493.576 291.032 494.515 288.728C495.539 286.339 496.051 283.267 496.051 279.512C496.051 273.795 494.942 269.699 492.723 267.224C490.504 264.664 487.688 263.384 484.275 263.384C481.971 263.384 479.923 263.939 478.131 265.048C476.339 266.157 474.931 267.907 473.907 270.296C472.883 272.6 472.371 275.672 472.371 279.512C472.371 285.144 473.48 289.24 475.699 291.8C477.918 294.36 480.776 295.64 484.275 295.64ZM553.851 312.152C550.096 312.152 547.195 311.171 545.147 309.208C543.184 307.245 542.203 304.387 542.203 300.632V258.264C542.203 254.595 543.142 251.779 545.019 249.816C546.982 247.853 549.755 246.872 553.339 246.872C556.923 246.872 559.654 247.853 561.531 249.816C563.408 251.779 564.347 254.595 564.347 258.264V263.512H563.067C563.92 258.392 566.096 254.339 569.595 251.352C573.179 248.365 577.616 246.787 582.907 246.616C585.382 246.531 587.216 247.171 588.411 248.536C589.691 249.816 590.374 252.248 590.459 255.832C590.459 258.904 589.819 261.336 588.539 263.128C587.259 264.92 584.827 265.987 581.243 266.328L578.299 266.584C573.776 267.011 570.491 268.291 568.443 270.424C566.395 272.472 565.371 275.544 565.371 279.64V300.632C565.371 304.387 564.39 307.245 562.427 309.208C560.464 311.171 557.606 312.152 553.851 312.152ZM647.277 312.408C640.877 312.408 635.586 311.427 631.405 309.464C627.309 307.501 624.237 304.557 622.189 300.632C620.141 296.621 619.117 291.629 619.117 285.656V264.792H614.765C612.034 264.792 609.901 264.067 608.365 262.616C606.914 261.165 606.189 259.075 606.189 256.344C606.189 253.613 606.914 251.565 608.365 250.2C609.901 248.749 612.034 248.024 614.765 248.024H619.117V240.088C619.117 236.333 620.098 233.475 622.061 231.512C624.024 229.549 626.84 228.568 630.509 228.568C634.178 228.568 636.994 229.549 638.957 231.512C640.92 233.475 641.901 236.333 641.901 240.088V248.024H652.397C655.213 248.024 657.346 248.749 658.797 250.2C660.333 251.565 661.101 253.613 661.101 256.344C661.101 259.075 660.333 261.165 658.797 262.616C657.346 264.067 655.213 264.792 652.397 264.792H641.901V284.888C641.901 288.045 642.626 290.392 644.077 291.928C645.613 293.379 648.002 294.104 651.245 294.104C652.44 294.104 653.592 293.976 654.701 293.72C655.81 293.464 656.834 293.336 657.773 293.336C659.138 293.251 660.248 293.677 661.101 294.616C661.954 295.469 662.381 297.475 662.381 300.632C662.381 303.192 661.997 305.368 661.229 307.16C660.461 308.867 659.096 310.104 657.133 310.872C655.938 311.299 654.317 311.64 652.269 311.896C650.221 312.237 648.557 312.408 647.277 312.408ZM706.641 312.408C702.886 312.408 699.046 312.109 695.121 311.512C691.281 311 687.782 310.019 684.625 308.568C682.492 307.715 680.956 306.563 680.017 305.112C679.164 303.661 678.737 302.125 678.737 300.504C678.822 298.883 679.292 297.432 680.145 296.152C681.084 294.787 682.278 293.848 683.729 293.336C685.265 292.739 686.972 292.781 688.849 293.464C692.433 294.744 695.633 295.683 698.449 296.28C701.35 296.792 704.124 297.048 706.769 297.048C709.926 297.048 712.188 296.621 713.553 295.768C714.918 294.829 715.601 293.635 715.601 292.184C715.601 290.904 715.132 289.923 714.193 289.24C713.34 288.557 712.102 288.088 710.481 287.832L696.273 285.528C690.982 284.589 686.886 282.669 683.985 279.768C681.084 276.781 679.633 272.899 679.633 268.12C679.633 263.683 680.87 259.885 683.345 256.728C685.905 253.485 689.361 251.011 693.713 249.304C698.15 247.512 703.228 246.616 708.945 246.616C712.785 246.616 716.284 246.915 719.441 247.512C722.598 248.024 725.67 249.005 728.657 250.456C730.534 251.224 731.857 252.333 732.625 253.784C733.393 255.235 733.692 256.771 733.521 258.392C733.35 259.928 732.796 261.379 731.857 262.744C731.004 264.024 729.809 264.92 728.273 265.432C726.737 265.859 724.945 265.731 722.897 265.048C720.081 263.939 717.564 263.128 715.345 262.616C713.212 262.104 711.206 261.848 709.329 261.848C705.83 261.848 703.356 262.317 701.905 263.256C700.454 264.195 699.729 265.389 699.729 266.84C699.729 267.949 700.113 268.888 700.881 269.656C701.649 270.339 702.844 270.808 704.465 271.064L718.673 273.496C724.134 274.349 728.316 276.227 731.217 279.128C734.204 281.944 735.697 285.784 735.697 290.648C735.697 297.56 733.052 302.936 727.761 306.776C722.47 310.531 715.43 312.408 706.641 312.408Z" fill="black"></path></svg>