<svg width="1080" height="754" viewBox="0 0 1080 754" fill="none" xmlns="http://www.w3.org/2000/svg">
<path d="M794.708 118.833C846.797 66.7445 931.245 66.7445 983.333 118.833C1035.42 170.916 1035.42 255.364 983.333 307.453L726.745 564.036L538.125 375.416L794.708 118.833Z" fill="#FFE9D8"/>
<path d="M281.985 634.87C230.162 686.698 146.141 686.698 94.3179 634.87C42.4897 583.047 42.4897 499.026 94.3179 447.203L351.375 190.141L539.047 377.813L281.985 634.87Z" fill="#DEF5FF"/>
<path d="M725.807 187.349C700.969 162.745 671.526 143.276 639.166 130.052C606.802 116.828 572.151 110.104 537.192 110.271C502.229 110.437 467.646 117.489 435.411 131.021C403.177 144.552 373.922 164.302 349.317 189.14C324.713 213.979 305.245 243.416 292.021 275.781C278.797 308.146 272.073 342.797 272.239 377.755C272.406 412.713 279.458 447.302 292.989 479.536C306.521 511.771 326.271 541.021 351.109 565.625L538.458 376.489L725.807 187.349Z" fill="#017ABF"/>
<path d="M351.109 565.625C401.271 615.312 469.12 643.041 539.724 642.703C610.328 642.369 677.906 614 727.599 563.838C777.286 513.672 805.01 445.823 804.672 375.218C804.339 304.614 775.969 237.036 725.807 187.349L538.458 376.489L351.109 565.625Z" fill="#F17C1D"/>
<mask id="mask0_138_2" style="mask-type:luminance" maskUnits="userSpaceOnUse" x="281" y="118" width="518" height="517">
<path d="M281.974 118.464H798.026V634.516H281.974V118.464Z" fill="white"/>
</mask>
<g mask="url(#mask0_138_2)">
<mask id="mask1_138_2" style="mask-type:luminance" maskUnits="userSpaceOnUse" x="281" y="118" width="518" height="517">
<path d="M540 118.464C397.495 118.464 281.974 233.985 281.974 376.49C281.974 518.995 397.495 634.516 540 634.516C682.505 634.516 798.026 518.995 798.026 376.49C798.026 233.985 682.505 118.464 540 118.464Z" fill="white"/>
</mask>
<g mask="url(#mask1_138_2)">
<mask id="mask2_138_2" style="mask-type:luminance" maskUnits="userSpaceOnUse" x="281" y="117" width="518" height="518">
<path d="M798.667 117.334H281.333V634.667H798.667V117.334Z" fill="white"/>
</mask>
<g mask="url(#mask2_138_2)">
<mask id="mask3_138_2" style="mask-type:luminance" maskUnits="userSpaceOnUse" x="281" y="118" width="518" height="517">
<path d="M281.974 118.464H798.026V634.516H281.974V118.464Z" fill="white"/>
</mask>
<g mask="url(#mask3_138_2)">
<mask id="mask4_138_2" style="mask-type:luminance" maskUnits="userSpaceOnUse" x="281" y="118" width="518" height="517">
<path d="M540 118.464C397.495 118.464 281.974 233.985 281.974 376.49C281.974 518.995 397.495 634.516 540 634.516C682.505 634.516 798.026 518.995 798.026 376.49C798.026 233.985 682.505 118.464 540 118.464Z" fill="white"/>
</mask>
<g mask="url(#mask4_138_2)">
<path d="M281.974 118.464H798.026V634.516H281.974V118.464Z" fill="white"/>
</g>
</g>
</g>
</g>
</g>
<path d="M761.057 302.838C722.755 184.682 597.547 118.463 477.349 152.312C351.776 187.745 277.672 321.666 321.354 449.281C359.937 561.781 480.969 630.135 602.739 596.468C727.667 561.968 802.328 430.734 761.057 302.838ZM751.594 288.37C761.057 304.51 764.489 320.922 760.224 338.729C759.109 336.317 758.088 333.906 756.974 331.495C755.026 327.323 752.896 323.151 750.948 318.974C750.391 317.677 749.927 316.192 750.021 314.896C750.391 306.916 750.854 298.942 751.318 290.968C751.411 290.317 751.505 289.666 751.594 288.37ZM724.234 473.026C713.755 483.505 702.349 492.87 690.198 501.406C689.734 501.682 689.177 501.963 688.156 502.515C687.786 500.479 687.51 498.901 687.229 497.323C686.302 492.593 685.281 487.864 684.542 483.135C684.354 482.021 684.729 480.26 685.562 479.703C698.359 470.708 710.417 460.875 721.453 450.026C721.734 449.745 722.198 449.562 723.031 449.099C723.401 450.953 723.864 452.437 724.052 454.01C724.609 459.114 725.255 464.213 725.536 469.317C725.719 470.521 725.161 472.192 724.234 473.026ZM725.812 474.974C725.812 477.385 725.812 479.239 725.719 481.093C725.255 494.265 725.349 494.448 715.427 503.073C708.099 509.38 700.401 515.224 692.891 521.343C692.052 521.995 691.036 522.552 689.641 523.479C689.271 517.265 688.901 511.791 688.625 506.323C688.625 505.578 689.364 504.557 690.016 504C701.979 495.468 713.479 486.192 724.052 475.995C724.328 475.62 724.792 475.531 725.812 474.974ZM359.38 262.218C360.583 267.411 358.542 270.843 355.297 274.458C351.125 279.187 347.505 284.474 343.703 289.578C343.239 290.13 342.776 290.687 341.849 291.802C341.479 290.224 341.015 289.203 341.015 288.182C341.203 282.989 341.385 277.797 341.755 272.604C341.849 271.307 342.312 269.823 343.151 268.896C347.969 263.328 352.885 257.948 357.802 252.479C358.078 252.109 358.542 251.922 359.474 251.271C359.286 255.448 358.542 258.968 359.38 262.218ZM684.729 220.479C684.635 220.015 684.818 219.552 685.005 218.442C689.271 221.224 693.167 223.729 697.062 226.416C699.937 228.364 702.536 230.682 705.411 232.63C707.911 234.302 708.932 236.526 709.302 239.307C710.234 246.823 710.141 254.333 708.932 261.843C708.838 262.495 708.562 263.146 708.286 264.255C707.266 263.422 706.427 262.864 705.594 262.307C699.01 257.021 692.239 251.646 685.75 246.265C684.911 245.614 683.984 244.224 684.078 243.297C685.469 235.692 685.656 228.088 684.729 220.479ZM476.979 180.135C476.885 179.583 477.719 178.651 478.37 178.375C479.667 177.911 481.062 177.817 483.005 177.448C482.078 180.692 481.245 183.661 480.505 186.63C479.76 186.812 479.021 187 478.182 187.187C477.719 184.864 477.255 182.547 476.979 180.135ZM467.521 207.406C466.776 208.422 465.943 209.354 465.203 210.37C463.437 212.599 461.677 214.729 460.005 216.958C458.151 219.37 457.411 219.463 454.073 216.958C458.057 213.62 461.953 210.463 465.755 207.312C466.312 207.312 466.87 207.406 467.521 207.406ZM480.13 205.364C480.969 209.166 481.896 212.968 482.729 216.771C482.823 217.234 482.266 218.067 481.802 218.255C480.224 218.812 478.557 219.088 476.146 219.646C476.885 214.729 477.536 210.281 478.182 205.922C478.833 205.828 479.484 205.64 480.13 205.364ZM493.766 198.13C499.052 198.781 504.432 199.427 509.901 200.078C508.328 204.156 507.583 204.531 504.338 203.323C500.443 201.932 496.547 200.541 492.745 199.151C493.026 198.781 493.396 198.5 493.766 198.13ZM471.599 256.093C471.417 262.958 471.229 269.823 471.229 276.593C471.229 278.817 470.489 279.745 468.354 279.838C462.792 280.114 457.224 280.484 451.568 280.765C450.547 280.859 449.526 280.672 447.766 280.484C449.896 272.791 451.75 265.646 453.792 258.505C456.021 250.901 456.021 250.995 463.807 250.625C464.458 250.625 465.203 250.625 465.849 250.531C471.786 250.161 471.693 250.161 471.599 256.093ZM471.88 310.26C471.88 311.276 471.417 312.39 471.229 313.224C467.891 313.599 465.292 313.968 462.698 314.151C456.484 314.432 450.083 314.526 443.776 314.802C441.646 314.896 440.995 314.151 441.458 312.114C443.219 303.026 444.984 293.937 446.745 284.843C447.021 283.364 447.672 282.62 449.432 282.526C455.646 282.343 462.047 282.062 468.26 281.599C470.396 281.416 471.135 281.968 471.135 284.198C471.323 292.823 471.693 301.541 471.88 310.26ZM453.516 252.942C451.104 261.474 448.786 270.099 446.375 278.63C446.187 279.375 445.167 280.578 444.609 280.484C438.302 279.932 431.906 279.093 425.042 278.354C428.198 271.771 430.885 266.203 433.667 260.734C435.338 257.396 437.286 254.146 439.141 250.807C439.88 249.416 440.713 248.859 442.385 249.14C445.536 249.698 448.693 250.161 451.844 250.531C453.422 250.713 453.979 251.271 453.516 252.942ZM437.099 245.984C434.594 244.875 432 243.854 428.937 242.646C429.771 241.536 430.141 240.698 430.792 240.052C437.286 233.463 443.963 226.88 450.359 220.203C452.682 217.791 454.349 219.833 456.948 220.39C454.906 223.265 453.234 225.583 451.661 227.995C448.042 233.463 444.427 238.937 440.901 244.5C439.88 246.172 438.859 246.729 437.099 245.984ZM429.864 244.963C432.463 246.265 435.151 247.192 438.302 248.489C436.542 251.734 434.781 254.609 433.297 257.578C430.328 263.422 427.359 269.265 424.484 275.109C423.651 276.776 422.724 277.427 420.87 276.776C416.974 275.203 412.984 273.625 409.088 272.047C407.141 271.307 406.958 270.192 408.255 268.521C414.099 261.01 419.943 253.5 425.786 245.89C426.896 244.224 428.01 244.036 429.864 244.963ZM422.26 279.375C420.312 284.01 418.364 288.557 416.51 293.192C414.562 298.203 412.614 303.302 410.76 308.401C410.203 309.885 409.552 310.442 407.979 309.885C402.042 307.474 396.198 305.156 390.172 302.838C388.5 302.187 387.943 301.166 388.963 299.5C394.068 291.057 399.073 282.62 404.359 274.182C404.729 273.531 406.031 272.698 406.583 272.88C411.687 274.922 416.88 277.146 422.26 279.375ZM412.708 308.312C416.229 299.593 419.755 290.781 423.187 281.968C423.927 280.114 424.854 279.651 426.896 280.021C432.088 281.041 437.375 281.599 442.755 282.343C443.588 282.432 444.427 282.713 445.354 282.989C445.167 284.01 445.073 284.567 444.984 285.125C443.312 294.026 441.552 302.932 439.88 311.833C439.51 313.968 438.771 314.896 436.542 314.614C429.307 313.599 421.979 312.578 414.656 311.651C412.427 311.276 411.781 310.349 412.708 308.312ZM440.713 318.422C440.807 317.677 442.198 316.656 442.943 316.656C451.75 316.099 460.75 315.729 469.557 315.172C471.505 315.083 472.062 315.547 472.25 317.401C472.896 326.859 473.641 336.224 474.292 345.687C474.38 346.614 473.917 347.541 473.641 348.375C468.724 348.838 464.458 349.396 460.193 349.583C453.328 349.953 446.375 350.047 439.604 350.229C437.75 350.323 436.911 349.677 437.099 347.729C438.396 337.989 439.417 328.156 440.713 318.422ZM483.844 204.067C486.068 207.218 488.385 210.37 490.521 213.62C490.797 213.989 490.427 215.286 489.963 215.656C488.943 216.307 487.739 216.771 486.437 216.958C485.88 217.052 484.677 216.401 484.489 215.937C483.562 212.229 482.729 208.515 481.896 204.807C482.635 204.531 483.193 204.343 483.844 204.067ZM629.078 365.161C616.094 372.583 603.203 380 590.219 387.328C588.922 388.073 587.719 388.255 586.974 386.495C582.896 377.5 578.812 368.593 575.01 360.338C573.62 358.021 574.359 357.187 575.937 356.26C587.531 349.677 599.219 343.088 610.719 336.411C612.479 335.39 613.406 335.484 614.427 337.156C619.526 345.224 624.63 353.291 629.917 361.359C630.844 363.031 630.75 364.14 629.078 365.161ZM633.349 367.479C637.797 375.734 642.344 383.896 646.979 392.057C648 393.823 647.63 394.843 645.958 395.771C634.364 402.536 622.776 409.401 611.182 416.078C608.953 417.38 606.542 418.396 604.224 419.604C602.646 420.437 601.63 420.255 600.885 418.489C597.271 409.771 593.469 401.057 590.036 392.984C588.734 390.76 589.385 389.927 590.963 389C604.13 381.578 617.208 374.067 630.286 366.552C631.771 365.625 632.604 366 633.349 367.479ZM493.953 244.963C497.849 243.297 501.833 241.812 505.823 240.422C506.562 240.14 508.234 240.604 508.604 241.255C512.963 248.302 517.229 255.448 521.495 262.588C521.776 263.146 521.125 264.812 520.474 265.182C516.953 266.948 513.245 268.432 510.922 269.448C506.937 270.843 504.338 271.677 501.651 272.604C499.979 273.255 498.958 272.88 498.401 270.932C496.453 263.146 494.323 255.448 492.469 247.656C492.281 246.911 493.208 245.338 493.953 244.963ZM490.703 241.442C489.13 234.765 487.364 228.177 485.88 221.5C485.698 220.666 486.812 219.646 487.364 218.718C487.458 218.625 487.739 218.531 487.922 218.531C493.672 216.401 492.281 216.12 495.62 220.942C498.864 225.765 501.927 230.682 505.172 235.505C506.474 237.453 506.286 238.661 503.969 239.401C502.114 240.052 500.349 240.791 498.588 241.536C497.01 242.088 495.437 242.552 493.953 243.109C492.281 243.666 491.167 243.39 490.703 241.442ZM589.016 305.343C579.182 311.37 569.167 317.307 558.781 323.427C557.667 322.687 556.37 322.406 556 321.573C551.453 313.135 547.094 304.692 542.552 296.255C541.713 294.677 542.088 293.937 543.568 293.099C551.641 288.557 559.802 284.01 567.776 279.281C569.26 278.448 570.187 278.541 571.208 279.745C577.328 287.349 583.448 294.953 589.479 302.562C589.943 303.114 589.573 304.974 589.016 305.343ZM590.406 306.734C592.354 305.62 593.005 307.01 593.838 308.125C598.844 314.989 603.76 321.849 608.771 328.807C612.016 333.536 612.109 333.724 607.193 336.599C596.807 342.718 586.141 348.562 575.661 354.495C574.177 355.333 572.875 355.797 571.859 353.755C567.5 344.76 563.141 335.854 558.318 326.208C558.594 325.838 558.963 324.724 559.708 324.354C569.911 318.422 580.109 312.578 590.406 306.734ZM568.239 273.625C562.302 267.036 556.37 260.453 550.25 253.963C548.578 252.198 548.766 251.364 550.62 249.974C555.161 246.448 559.521 242.552 564.068 238.937C564.807 238.38 566.573 237.916 567.125 238.38C575.286 244.13 583.359 249.974 591.333 255.817C591.609 256 591.797 256.375 592.448 257.114C589.661 259.713 587.068 262.218 584.375 264.442C580.391 267.781 576.213 270.843 572.135 274.088C570.651 275.291 569.63 275.109 568.239 273.625ZM567.125 274.922C568.146 276.036 568.146 276.963 566.849 277.797C558.781 282.62 550.713 287.349 542.177 292.453C541.156 291.802 540.047 291.432 539.677 290.687C535.224 282.896 530.864 275.015 526.318 267.224C525.578 265.833 525.672 265 527.156 264.161C533.182 260.734 539.208 257.208 545.333 253.87C545.979 253.5 547.463 253.776 548.021 254.239C554.422 261.104 560.635 268.057 567.125 274.922ZM543.661 252.661C537.911 256.093 532.068 259.526 525.672 263.234C524.833 262.771 523.818 262.495 523.349 261.843C518.901 254.703 514.635 247.562 510.276 240.234C509.995 239.771 510.37 238.286 510.922 238.01C514.635 235.692 518.344 233.557 522.239 231.515C522.885 231.146 524.37 231.515 524.927 232.073C531.141 237.823 537.266 243.76 543.479 249.698C544.682 250.625 545.333 251.646 543.661 252.661ZM501.651 274.364C508.234 271.953 514.911 269.448 521.495 266.854C523.073 266.203 524 266.484 524.745 267.968C529.01 275.755 533.37 283.453 537.818 291.245C538.838 293.005 538.193 293.75 536.521 294.489C531.422 296.625 526.411 298.755 521.219 300.984C521.219 300.89 521.219 300.89 521.125 300.797C517.51 302.099 513.797 303.302 510.182 304.599C508.422 305.25 507.489 304.692 507.026 302.932C504.802 294.489 502.391 285.958 500.073 277.521C499.609 275.849 500.073 275.015 501.651 274.364ZM511.109 306.083C519.641 302.932 528.172 299.687 536.614 296.343C538.838 295.416 540.141 295.416 541.344 297.922C545.333 305.989 549.599 313.875 553.864 321.849C554.979 323.89 554.516 325.005 552.474 325.838C546.073 328.437 539.583 331.218 533.182 333.906C533.182 333.817 533.182 333.817 533.088 333.724C528.823 335.208 524.463 336.599 520.104 338.172C518.156 338.916 517.135 338.547 516.489 336.411C514.078 327.692 511.573 318.974 508.974 310.26C508.328 307.937 508.792 306.916 511.109 306.083ZM520.292 339.75C531.422 335.578 542.552 331.406 553.677 327.047C555.536 326.302 556.463 326.672 557.297 328.437C561.469 337.156 565.734 345.781 570.187 354.406C571.021 356.166 570.651 357 568.891 357.745C561.562 360.802 554.234 363.958 546.906 367.015C546.906 366.927 546.818 366.927 546.818 366.833C541.531 368.687 536.151 370.354 530.864 372.302C528.172 373.323 527.156 372.489 526.411 369.802C523.906 360.896 521.312 351.995 518.62 343.088C517.974 341.328 518.344 340.495 520.292 339.75ZM530.958 374.067C543.849 369.245 556.646 364.328 569.536 359.317C571.208 358.672 572.135 358.672 572.969 360.432C577.052 369.521 581.318 378.515 585.583 387.515C586.51 389.463 585.12 389.833 583.823 390.39C574.917 394.192 566.016 397.995 557.109 401.797C557.016 401.703 557.016 401.521 556.927 401.427C551.641 403.281 546.354 405.041 540.974 406.896C538.838 407.64 537.818 407.083 537.172 404.859C534.573 395.859 531.792 386.864 529.01 377.963C528.083 375.734 528.729 374.901 530.958 374.067ZM614.151 331.87C613.594 331.495 612.755 331.218 612.292 330.661C606.453 322.593 600.703 314.432 594.766 306.453C593.745 305.062 594.208 304.323 595.323 303.396C603.484 296.625 611.739 289.76 619.901 283.083C620.453 282.62 622.219 282.62 622.682 283.083C629.823 290.13 636.87 297.364 643.828 304.599C644.292 305.062 644.292 307.01 643.734 307.385C634.276 315.359 624.724 323.245 615.167 331.125C615.078 331.312 614.797 331.406 614.151 331.87ZM618.417 281.786C610.344 288.557 602.182 295.234 594.114 302.005C593.932 302.187 593.651 302.281 593.005 302.745C592.536 302.468 591.703 302.099 591.239 301.541C585.026 293.937 578.906 286.239 572.599 278.541C571.578 277.333 571.948 276.593 573.062 275.666C579.646 270.192 586.323 264.63 593.005 259.25C593.557 258.786 595.323 258.786 595.88 259.25C603.484 265.646 611.088 272.234 618.599 278.724C619.807 279.932 619.62 280.859 618.417 281.786ZM595.599 253.87C594.672 255.073 593.651 255.073 592.354 254.146C584.562 248.489 576.682 242.833 568.797 237.177C567.406 236.156 567.5 235.411 568.516 234.114C571.766 230.031 574.823 225.859 578.161 221.87C578.719 221.224 580.297 220.76 580.948 221.036C590.036 225.302 599.125 229.661 608.12 234.021C608.583 234.302 609.047 234.672 609.604 235.135C609.328 235.875 609.141 236.526 608.771 236.989C604.505 242.739 600.052 248.302 595.599 253.87ZM576.213 221.687C573.062 225.677 569.911 229.661 566.573 233.651C566.198 234.114 564.901 234.484 564.344 234.208C555.719 229.104 547.094 223.911 538.281 218.625C540.693 215.474 543.016 212.229 545.516 209.26C545.891 208.797 547.187 208.89 547.838 209.073C556.927 212.229 566.109 215.474 575.198 218.718C577.146 219.276 577.328 220.203 576.213 221.687ZM562.859 235.411C563.047 235.505 563.229 235.875 564.068 236.802C558.687 241.073 553.495 245.338 548.021 249.416C547.557 249.786 546.26 249.604 545.797 249.14C539.12 242.833 532.443 236.432 525.854 230.125C525.76 230.031 525.76 229.755 525.672 229.385C529.01 226.51 532.443 223.541 535.87 220.76C536.333 220.39 537.448 220.479 538.005 220.854C546.443 225.677 554.604 230.588 562.859 235.411ZM524.651 227.531C524.281 227.807 523.073 227.625 522.609 227.25C516.208 222.057 509.719 216.771 503.318 211.484C503.224 211.39 503.224 211.114 503.135 210.927C506.099 206.755 507.213 206.198 511.573 208.146C518.437 211.208 525.297 214.453 532.161 217.604C532.812 217.885 533.458 218.442 534.943 219.276C531.234 222.338 527.989 225.026 524.651 227.531ZM504.802 215.01C510.458 219.552 516.026 224.099 522.609 229.385C517.693 232.073 513.708 234.39 509.437 236.62C509.068 236.802 507.771 236.156 507.401 235.599C503.411 229.661 499.609 223.635 495.62 217.698C494.693 216.307 494.974 215.567 496.364 214.64C500.724 211.765 500.724 211.765 504.802 215.01ZM494.51 213.526C494.042 213.708 493.026 213.526 492.745 213.156C490.333 209.906 487.922 206.567 485.604 203.323C486.161 203.047 486.812 202.765 487.364 202.489C491.167 205.083 495.062 207.776 499.422 210.745C497.292 211.948 495.989 212.875 494.51 213.526ZM484.489 223.817C484.677 224.192 484.677 224.562 484.771 224.932C486.161 230.5 487.458 235.968 488.943 241.536C489.5 243.573 489.13 244.875 486.812 245.245C483.286 245.89 479.854 246.729 476.328 247.468C474.38 247.932 473.734 247.286 473.917 245.245C474.568 238.286 475.031 231.427 475.682 224.468C475.958 221.5 477.63 220.479 482.078 220.297C484.583 220.203 483.844 222.427 484.489 223.817ZM476.422 249.234C480.042 248.677 483.656 247.838 487.182 246.911C489.224 246.359 490.239 246.729 490.703 248.859C492.469 256 494.417 263.052 496.177 270.192C497.104 273.995 497.104 273.995 493.208 275.291C487.364 276.5 481.432 277.609 475.495 278.911C473.453 279.375 472.62 278.817 472.713 276.593C472.989 268.614 473.177 260.547 473.271 252.573C473.453 250.343 474.292 249.51 476.422 249.234ZM475.307 280.578C481.802 279.281 488.479 277.89 494.88 276.312C497.104 275.755 498.031 276.218 498.588 278.448C499.516 282.432 500.63 286.328 501.739 290.224C502.948 294.489 503.969 298.849 505.266 303.114C505.823 305.156 505.266 306.177 503.224 306.64C494.417 308.495 485.604 310.442 476.792 312.39C474.568 312.854 473.641 312.203 473.641 309.797C473.453 301.078 473.177 292.453 472.896 283.734C472.807 281.968 473.364 280.953 475.307 280.578ZM474.104 317.489C473.917 315.359 474.568 314.526 476.792 314.062C485.698 312.297 494.599 310.349 503.411 308.312C505.635 307.755 506.75 308.031 507.307 310.442C508.328 314.526 509.531 318.604 510.739 322.687C512.036 327.229 513.333 331.776 514.635 336.317C515.281 338.359 515.099 339.656 512.687 340.12C501.463 342.531 490.151 345.036 479.021 347.541C476.979 348.005 476.239 347.172 476.146 345.224C475.495 336.041 474.844 326.765 474.104 317.489ZM479.391 349.208C490.703 346.89 502.114 344.39 513.427 341.791C515.375 341.328 516.208 341.604 516.766 343.552C517.974 348.099 519.364 352.64 520.755 357.187C520.568 357.281 520.385 357.281 520.198 357.37C521.776 361.823 523.26 366.37 524.833 370.823C525.672 373.14 524.927 374.161 522.609 374.713C509.437 377.5 496.271 380.375 483.099 383.25C481.062 383.713 480.411 382.875 480.13 380.927C479.114 371.468 477.906 361.916 476.703 352.458C476.609 350.416 477.255 349.677 479.391 349.208ZM483.286 385.01C496.734 382.135 510.182 379.166 523.63 376.198C525.76 375.734 526.599 376.385 527.156 378.333C528.547 382.875 530.213 387.328 531.698 391.781C531.328 391.875 531.047 391.963 530.677 392.151C532.255 396.698 533.739 401.333 535.406 405.88C536.057 407.823 535.5 408.755 533.552 409.218C518.531 412.463 503.687 415.708 488.667 418.953C486.995 419.328 486.161 418.771 485.88 417.005C484.401 407.271 482.823 397.531 481.245 387.791C480.969 385.937 481.614 385.38 483.286 385.01ZM490.057 420.255C504.708 417.286 519.177 414.041 533.833 410.703C536.245 410.146 537.078 410.703 537.729 412.927C539.026 417.192 540.604 421.364 541.995 425.541C541.807 425.63 541.531 425.724 541.344 425.724C542.922 430.177 544.406 434.724 545.979 439.172C546.724 441.213 546.073 442.234 544.031 442.698C528.083 446.13 512.224 449.562 496.364 453.083C494.323 453.547 493.114 453.083 492.745 450.765C491.078 441.953 489.224 433.146 487.364 424.333C486.812 421.828 487.364 420.807 490.057 420.255ZM539.302 412C538.656 410.052 539.302 409.218 541.156 408.661C546.536 406.896 551.917 404.948 557.391 403.093C557.479 403.187 557.479 403.375 557.573 403.468C566.385 399.755 575.286 396.047 584.005 392.245C586.047 391.317 587.255 391.224 588.182 393.635C591.703 402.073 595.323 410.515 599.031 418.864C599.958 420.901 599.495 422.015 597.359 422.849C581.969 428.692 566.661 434.63 551.266 440.474C549.318 441.213 548.302 440.843 547.651 438.708C544.963 429.807 542.177 420.901 539.302 412ZM551.641 442.234C567.312 436.297 582.896 430.364 598.568 424.239C600.328 423.593 601.167 423.87 601.906 425.63C605.057 433.703 608.307 441.771 611.552 449.838C612.479 452.062 611.828 453.177 609.792 454.01C600.328 458 590.87 461.989 581.411 466.067C581.318 465.974 581.318 465.885 581.224 465.698C574.823 467.922 568.333 470.057 561.932 472.281C559.802 473.026 558.594 472.745 557.854 470.333C555.255 462.083 552.568 453.734 549.781 445.479C549.229 443.625 549.875 442.885 551.641 442.234ZM562.489 473.953C574.734 469.593 587.161 465.14 599.307 460.599C603.114 459.208 606.823 457.442 610.437 455.682C612.479 454.661 613.594 454.849 614.333 457.166C616.932 464.677 619.62 472.099 622.401 479.515C623.052 481.187 622.682 482.114 621.01 482.854C610.531 487.307 599.958 491.854 589.479 496.302C589.385 496.12 589.385 496.026 589.292 495.838C583.448 497.88 577.609 499.828 571.672 501.87C569.536 502.609 568.516 502.052 567.776 499.922C565.364 492.5 562.859 485.083 560.266 477.661C559.521 475.437 560.354 474.604 562.489 473.953ZM613.312 449.187C611.922 444.922 610.437 440.75 609.047 436.578C608.864 436.666 608.677 436.666 608.489 436.76C606.917 432.776 605.338 428.692 603.578 424.703C602.833 422.942 603.391 422.109 604.875 421.276C618.969 413.297 632.974 405.416 647.073 397.343C648.833 396.323 649.578 396.604 650.411 398.271C654.12 406.156 657.833 414.041 661.635 421.828C662.562 423.682 662.005 424.703 660.333 425.817C646.516 435.093 632.141 443.161 617.208 450.489C615.26 451.599 614.057 451.51 613.312 449.187ZM651.802 397.343C651.062 395.771 650.875 394.562 652.547 393.448C665.068 384.734 676.75 375.088 687.604 364.422C687.693 364.328 687.974 364.234 688.625 363.958C689.177 364.791 689.828 365.442 690.292 366.276C694.281 373.51 698.083 380.745 702.073 387.885C703.088 389.739 703 391.13 701.328 392.708C690.479 403.187 678.792 412.833 666.547 421.552C664.786 422.755 663.859 422.849 662.838 420.625C659.224 412.927 655.51 405.135 651.802 397.343ZM686.026 363.401C675.453 373.974 663.766 383.432 651.526 392.057C650.135 392.984 649.484 392.521 648.833 391.317C644.198 382.875 639.562 374.437 634.739 366C633.625 364.14 634.922 363.495 636.13 362.567C644.849 355.609 653.656 348.562 662.281 341.51C664.135 340.031 665.807 338.265 667.479 336.505C668.588 335.39 669.609 335.297 670.536 336.692C675.823 344.39 681.016 352.177 686.396 359.875C686.583 360.156 686.766 360.526 687.141 361.359C686.859 361.823 686.677 362.75 686.026 363.401ZM666.083 335.39C657.182 342.995 648.276 350.51 639.281 358.021C637.333 359.599 634.828 361.916 632.885 361.64C631.307 361.453 630.099 357.927 628.708 355.797C624.536 349.302 620.364 342.812 616.094 336.317C615.818 335.948 615.542 335.484 614.984 334.651C615.354 334.093 615.63 333.26 616.187 332.703C625.833 324.635 635.479 316.656 645.219 308.682C645.776 308.218 647.349 308.312 647.724 308.776C654.213 316.474 660.614 324.26 667.016 331.958C668.312 333.63 667.104 334.557 666.083 335.39ZM644.755 302.651C638.078 295.698 631.213 288.739 624.443 281.88C623.516 280.859 622.682 280.114 623.885 278.724C630.193 271.213 636.5 263.609 643.177 255.448C648.37 259.343 653.844 263.515 659.318 267.687C661.911 269.729 664.323 271.859 666.922 273.901C668.682 275.203 669.239 276.5 667.661 278.448C661.26 286.422 654.864 294.489 648.651 302.562C647.349 304.323 646.333 304.323 644.755 302.651ZM639.745 255.911C634.088 263.146 628.432 270.38 622.588 277.427C622.219 277.89 620.453 277.984 619.989 277.521C612.203 270.932 604.505 264.349 596.896 257.578C596.432 257.208 596.526 255.63 596.989 254.984C601.443 249.047 606.078 243.203 610.807 237.453C611.088 237.083 611.458 236.713 611.828 236.25C612.479 236.526 613.13 236.62 613.682 236.989C622.125 242.182 630.656 247.468 639.099 252.755C640.489 253.682 640.766 254.609 639.745 255.911ZM608.953 232.442C600.146 228.088 591.146 223.817 582.245 219.552C580.854 218.906 580.391 218.255 581.13 216.677C582.896 212.781 584.375 208.797 585.953 204.901C586.234 204.343 586.604 203.786 586.974 203.229C587.901 203.416 588.734 203.51 589.385 203.692C598.38 206.385 607.38 209.166 616.375 211.854C618.599 212.505 619.437 213.62 618.505 215.843C616.375 221.036 614.239 226.14 612.203 231.333C611.646 233.187 610.531 233.281 608.953 232.442ZM585.307 199.245C585.307 199.708 583.911 200.448 583.266 200.354C573.25 198.687 563.229 196.922 553.307 195.067C552.656 194.974 552.104 193.771 551.641 193.031C551.453 192.562 551.641 191.916 551.729 191.359C552.01 185.515 552.01 185.333 557.76 185.422C566.016 185.609 574.453 185.979 582.708 186.349C583.729 186.442 584.844 187.093 586.047 187.557C585.771 191.823 585.677 195.531 585.307 199.245ZM552.75 197.015C562.859 198.687 572.969 200.448 583.078 202.396C583.635 202.489 584.469 204.067 584.286 204.62C582.802 208.609 581.224 212.505 579.463 216.401C579.182 216.958 577.792 217.604 577.234 217.422C567.5 214.083 557.667 210.557 548.021 207.031C547.838 206.942 547.745 206.755 547.463 206.479C548.578 203.604 549.505 200.911 550.713 198.317C550.896 197.573 552.104 196.833 552.75 197.015ZM544.219 194.14C535.5 193.583 526.599 193.213 517.88 192.75C517.047 192.656 515.838 191.916 515.656 191.359C515.469 190.526 516.12 189.505 516.396 188.672C522.239 187.927 527.338 187.187 532.625 186.724C537.354 186.26 541.995 186.073 546.818 185.609C549.042 185.422 549.875 186.26 550.062 188.484C550.338 194.51 550.156 194.51 544.219 194.14ZM518.437 194.51C527.62 195.161 536.984 195.625 546.26 196.088C548.766 196.182 549.135 197.109 548.302 199.427C545.891 206.385 545.979 206.291 538.932 204.62C532.068 202.953 525.114 201.468 518.25 199.89C516.859 199.614 515.469 199.245 513.891 198.963C514.26 195.812 515.375 194.328 518.437 194.51ZM516.489 201.375C524.463 203.135 532.625 204.995 540.604 206.849C541.62 207.031 542.552 207.495 544.312 208.146C541.531 211.39 539.208 214.265 536.802 217.052C536.521 217.328 535.5 217.328 534.943 217.052C526.599 213.156 518.156 209.166 509.625 205.083C512.036 200.448 512.036 200.354 516.489 201.375ZM496.271 195.255C501.651 194.974 507.026 194.791 512.687 194.51C512.594 197.385 511.849 198.781 509.068 198.317C504.526 197.573 500.073 197.015 495.437 196.458C495.713 196.088 495.989 195.625 496.271 195.255ZM512.5 192.75C507.489 193.12 502.391 193.213 497.292 193.401C497.385 193.031 497.474 192.656 497.568 192.38C502.297 191.453 507.12 190.526 512.036 189.687C512.594 189.599 513.708 190.432 513.708 190.62C513.427 191.265 512.963 192.656 512.5 192.75ZM511.667 187.651C507.026 188.672 502.297 189.505 497.474 190.432C497.474 190.338 497.474 190.245 497.385 190.151C497.292 189.875 497.198 189.599 497.01 189.411C501.463 187.833 505.917 186.26 510.552 184.864C511.016 184.682 512.036 185.422 512.406 185.979C512.687 186.26 512.13 187.557 511.667 187.651ZM509.531 183.01C504.896 184.588 500.26 186.166 495.526 187.833C495.25 187.651 495.062 187.463 494.693 187.37C498.682 185.239 502.672 183.01 506.75 180.974C507.401 180.692 508.604 181.62 509.625 181.989C509.625 182.271 509.531 182.64 509.531 183.01ZM505.083 205.458C502.297 209.724 501.187 209.906 497.937 207.588C495.062 205.458 492.099 203.416 489.224 201.375C489.687 201.099 490.239 200.724 490.703 200.448C495.437 202.12 500.167 203.786 505.083 205.458ZM476.239 206.479C476.052 207.682 475.864 208.89 475.682 210.093C475.401 212.041 475.125 213.896 474.844 215.843C474.198 220.297 473.177 221.036 468.354 219.739C470.489 215.38 472.713 211.114 474.844 206.755C475.307 206.661 475.776 206.567 476.239 206.479ZM472.156 222.057C472.713 222.057 473.828 223.265 473.734 223.911C473.271 231.427 472.62 238.937 471.88 246.359C471.786 247.005 471.042 248.12 470.489 248.213C466.13 248.677 461.771 248.859 456.297 249.234C458.708 242.739 460.656 237.177 462.698 231.703C463.344 229.942 464.088 228.088 464.922 226.323C467.427 220.942 466.312 222.427 472.156 222.057ZM459.448 235.692C458.057 239.307 456.76 242.927 455.557 246.635C455 248.489 453.979 249.14 452.125 248.859C448.693 248.302 445.354 247.932 440.995 247.375C443.963 242.739 446.281 238.937 448.786 235.135C451.198 231.515 453.698 227.995 456.203 224.468C458.802 220.854 459.729 220.666 464.458 222.708C462.974 226.974 461.12 231.333 459.448 235.692ZM459.266 210.093C457.411 211.672 455.557 213.156 453.792 214.823C451.844 216.677 450.641 215.937 449.25 213.526C453.422 211.021 457.505 208.609 461.583 206.198C462.047 206.385 462.604 206.567 463.161 206.755C462.047 207.958 460.656 208.979 459.266 210.093ZM458.802 204.067C459.078 204.437 459.448 204.807 459.823 205.177C456.297 207.312 452.771 209.442 449.156 211.484C448.693 211.765 447.396 211.297 447.208 210.833C447.021 210.281 447.396 208.979 447.859 208.797C451.474 207.125 455.094 205.64 458.802 204.067ZM450.177 217.979C447.396 220.666 444.609 223.265 441.922 226.047C437.562 230.5 433.297 234.948 429.031 239.495C427.547 241.073 426.432 241.349 424.672 239.958C419.198 235.599 419.016 235.505 424.672 231.239C431.255 226.323 438.026 221.593 444.609 216.677C446.838 215.01 448.411 215.104 450.177 217.979ZM444.521 214.547C436.266 220.76 427.823 226.786 419.568 232.911C419.385 233.093 419.016 233.093 418.271 233.375C417.344 231.333 416.229 229.385 415.489 227.25C415.302 226.604 416.047 225.12 416.693 224.75C425.229 220.109 433.948 215.567 442.573 211.114C443.219 210.745 444.427 211.484 445.448 211.765C445.167 212.692 445.167 214.083 444.521 214.547ZM419.292 237.547C421.427 239.125 423.281 241.073 425.505 243.015C424.948 243.76 424.484 244.411 424.021 245.151C418.271 252.661 412.427 260.083 406.677 267.687C405.38 269.448 404.453 269.823 402.781 268.432C400.281 266.297 397.776 264.161 395.271 262.031C393.88 260.823 393.604 259.62 395.083 258.135C402.229 251.364 409.463 244.593 416.693 237.916C417.25 237.359 418.828 237.177 419.292 237.547ZM394.156 263.328C397.031 266.109 400.187 268.708 403.62 271.677C401.766 274.646 399.724 277.521 397.958 280.578C394.437 286.422 391.005 292.359 387.667 298.291C386.646 300.151 385.625 300.427 384.141 299.13C380.245 295.791 376.349 292.541 372.547 289.203C371.156 288 371.25 286.791 372.364 285.495C378.39 278.078 384.422 270.75 390.542 263.328C391.745 261.567 392.672 261.75 394.156 263.328ZM386.646 304.041C386.739 303.859 386.922 303.859 387.297 303.578C390.354 304.974 393.417 306.547 396.568 307.849C400 309.239 403.432 310.349 406.958 311.463C408.625 312.021 408.995 312.76 408.531 314.432C405.75 323.89 403.062 333.349 400.37 342.812C399.906 344.479 399.073 345.036 397.406 344.39C389.797 341.328 382.099 338.359 374.495 335.208C373.849 334.927 373.104 333.349 373.292 332.797C377.745 323.151 382.193 313.599 386.646 304.041ZM374.312 337.062C381.917 340.213 389.614 343.182 397.219 346.151C397.958 346.427 398.703 346.427 399.354 346.521C399.167 348.005 399.073 348.656 398.979 349.302C397.219 358.672 395.364 368.13 393.786 377.5C393.417 379.63 392.672 380.463 390.542 379.536C381.823 376.015 372.922 372.489 364.203 368.963C362.531 368.317 362.068 367.203 362.625 365.536C365.594 356.442 368.469 347.354 371.344 338.172C371.807 336.505 372.641 336.411 374.312 337.062ZM394.437 385.198C394.62 383.062 395.547 382.875 397.495 383.156C408.625 384.823 419.943 386.213 431.161 387.791C432.088 387.885 432.927 388.349 433.667 388.625C433.76 391.687 433.76 394.192 433.76 396.698C434.036 404.208 434.224 411.718 434.594 419.234C434.687 421.088 434.224 422.015 432.182 421.739C419.568 419.974 407.052 418.307 394.437 416.635C392.583 416.359 391.745 415.521 391.932 413.484C392.859 404.114 393.693 394.656 394.437 385.198ZM433.667 383.25C433.573 385.567 432.833 386.307 430.609 386.031C419.661 384.453 408.531 382.968 397.495 381.484C395.547 381.208 394.901 380.281 395.271 378.333C397.125 368.875 398.797 359.317 400.651 349.859C400.833 349.12 401.208 348.375 401.484 347.541C402.693 347.729 403.526 347.911 404.359 348.005C413.542 349.302 422.818 350.604 432 351.713C434.224 351.995 434.875 352.552 434.781 354.87C434.318 364.328 433.948 373.786 433.667 383.25ZM432.463 350.047C423.094 348.656 413.635 347.448 404.266 346.151C402.318 345.87 401.672 345.036 402.318 342.995C405.01 333.817 407.604 324.635 410.203 315.453C410.76 313.411 411.594 312.76 413.911 313.224C420.776 314.432 427.729 315.265 434.594 316.286C435.896 316.474 437.286 316.562 438.677 316.75C438.677 317.677 438.771 318.328 438.677 318.974C437.562 328.437 436.448 337.989 435.427 347.448C435.245 349.489 434.594 350.323 432.463 350.047ZM436.729 354.406C436.823 352.64 437.469 352.083 439.234 352.083C450.177 351.531 461.307 350.974 472.25 350.323C474.38 350.229 474.844 350.974 475.125 352.828C476.146 362.104 477.349 371.468 478.37 380.745C478.463 381.859 478 383.156 477.812 384.453C468.26 385.104 459.448 385.75 450.641 386.307C446.375 386.495 442.109 386.307 437.838 386.401C436.172 386.401 435.427 385.843 435.427 383.989C435.896 374.067 436.359 364.234 436.729 354.406ZM438.12 387.979C450.917 387.422 463.625 386.677 476.516 386.031C477.536 385.937 478.557 386.401 479.297 386.495C480.318 392.896 481.151 398.552 482.078 404.208C482.729 408.38 483.469 412.557 484.213 416.729C484.583 418.583 483.937 419.51 482.078 419.604C467.703 420.343 453.422 421.088 439.141 421.828C437.375 421.922 436.448 421.276 436.448 419.328C436.266 409.771 435.896 400.218 435.614 390.666C435.427 388.906 435.896 388.073 438.12 387.979ZM439.141 423.776C453.609 423.036 467.984 422.203 482.359 421.458C483.38 421.364 484.401 421.922 484.953 422.109C486.719 430.453 488.203 438.062 489.776 445.666C490.151 447.614 490.614 449.651 491.078 451.599C491.448 453.177 490.797 453.922 489.224 454.104C473.641 455.958 458.151 456.979 442.479 456.515C440.807 456.515 439.974 455.87 439.786 454.198C438.859 444.828 437.838 435.37 436.823 426.005C436.635 424.151 437.562 423.87 439.141 423.776ZM450.547 458.276C463.437 457.536 476.239 456.703 489.13 455.776C491.354 455.588 492.187 456.146 492.745 458.276C494.786 466.625 496.917 474.974 499.146 483.229C499.797 485.547 499.146 486.38 496.828 486.567C481.062 487.401 465.385 488.234 449.526 489.067C447.208 489.161 446.094 488.422 445.63 485.916C444.333 478.218 442.661 470.521 441.271 462.916C440.995 461.62 440.901 460.224 440.713 458.37C444.239 458.37 447.396 458.463 450.547 458.276ZM494.51 458.463C493.859 455.958 494.599 455.218 497.104 454.755C512.87 451.51 528.547 447.984 544.219 444.364C546.724 443.812 547.651 444.364 548.391 446.687C549.599 450.765 551.083 454.755 552.474 458.745C552.286 458.833 552.193 458.833 552.01 458.927C553.401 463.01 554.792 467.182 556.276 471.26C557.016 473.208 556.37 474.135 554.516 474.604C537.911 479.146 521.312 483.041 504.245 485.453C502.114 485.729 501.276 485.083 500.812 483.135C498.776 474.88 496.734 466.625 494.51 458.463ZM504.708 487.12C521.588 483.505 538.375 479.89 555.255 476.083C557.297 475.62 558.036 476.271 558.594 478.031C559.802 481.833 561.193 485.547 562.396 489.255H562.302C563.51 492.781 564.625 496.396 566.016 499.922C566.849 502.052 566.573 503.354 564.161 503.911C550.62 506.968 537.172 510.213 523.63 513.276C520.292 514.015 516.766 514.39 513.333 515.036C511.385 515.411 510.552 514.666 509.995 512.906C507.677 505.208 505.266 497.604 502.76 489.995C502.203 488.14 502.854 487.583 504.708 487.12ZM527.989 514.484C540.141 511.698 552.286 508.823 564.344 505.765C566.943 505.114 567.963 505.578 568.703 508.083C570.745 514.297 572.969 520.51 575.198 526.63C576.031 528.765 575.568 529.875 573.25 530.343C556.463 533.958 539.859 537.666 523.073 541.192C522.146 541.38 520.385 540.916 520.198 540.265C517.135 532.843 514.354 525.427 511.203 517.359C517.417 516.338 522.797 515.593 527.989 514.484ZM524.187 542.859C541.156 540.359 557.854 536.739 574.359 531.823C576.213 531.271 577.234 531.734 577.885 533.588C578.719 536.37 579.739 539.057 580.667 541.843C580.854 541.75 580.948 541.75 581.13 541.656C582.057 544.343 582.896 546.942 583.911 549.63C584.562 551.302 584.099 552.229 582.432 552.599C566.109 556.125 549.969 559.739 533.552 563.078C532.531 563.265 530.677 562.338 530.12 561.411C527.432 556.307 525.021 551.021 522.609 545.734C521.776 543.974 522.146 543.14 524.187 542.859ZM577.052 525.89C575.104 519.859 572.969 513.833 570.651 507.896C569.724 505.39 570.094 504.375 572.875 503.354C589.109 497.323 605.057 491.109 621.198 484.896C623.328 484.062 624.255 484.156 625 486.474C626.948 492.87 628.989 499.177 631.213 505.484C632.047 507.896 631.307 509.01 629.078 509.937C619.989 513.739 610.807 517.635 601.812 521.437C601.812 521.343 601.719 521.25 601.719 521.161C594.948 523.479 588.088 525.703 581.411 528.208C578.906 528.859 577.792 528.208 577.052 525.89ZM623.792 477.567C622.588 474.047 621.38 470.427 620.083 466.906C619.989 466.906 619.807 466.995 619.713 466.995C618.417 463.38 617.302 459.672 615.911 456.052C615.26 454.291 615.63 453.364 617.396 452.343C630.474 445.109 643.458 437.875 656.531 430.547C658.203 429.62 659.781 428.416 661.354 427.302C662.656 426.281 663.672 426.468 664.323 428.041C667.385 435.739 670.443 443.531 673.318 451.323C673.599 452.062 672.854 453.828 672.021 454.291C662.005 460.505 651.802 466.625 641.693 472.562C637.427 475.067 632.974 477.198 628.526 479.422C625.094 481.093 625 481 623.792 477.567ZM665.995 427.859C665.156 425.817 665.344 424.703 667.198 423.312C679.531 414.593 691.312 405.135 701.979 394.468C702.536 393.911 703.276 393.448 704.297 392.614C705.781 395.953 707.172 398.828 708.469 401.797C710.417 406.62 712.271 411.536 714.219 416.359C714.87 417.932 714.87 419.234 713.573 420.531C702.349 431.567 690.104 441.583 677.213 450.672C676.75 450.953 676.193 451.135 675.453 451.51C674.989 450.583 674.62 449.932 674.338 449.099C671.651 442.047 668.87 434.906 665.995 427.859ZM704.667 388.812C703.927 387.515 703.276 386.307 702.625 385.198C698.823 378.239 695.021 371.286 691.125 364.422C690.198 362.843 690.104 361.729 691.406 360.338C700.213 351.156 708.286 341.234 715.146 330.385C715.521 329.828 715.984 329.364 717 328.25C720.896 334.463 724.052 340.401 728.042 345.781C732.489 351.62 731.932 356.442 727.391 361.823C720.25 370.172 713.385 378.797 706.427 387.328C706.151 387.885 705.5 388.161 704.667 388.812ZM714.5 328.062C707.635 339.567 699.198 349.953 689.828 359.411C689.641 359.599 689.364 359.692 688.713 360.062C687.141 357.745 685.656 355.333 683.984 353.015C680.088 347.265 676.104 341.51 672.114 335.854C671.094 334.463 670.63 333.349 672.021 331.87C680.552 323.151 688.068 313.599 694.651 303.302C694.838 303.026 695.208 302.745 695.854 302.005C698.547 305.156 701.141 307.937 703.552 311C707.078 315.453 710.604 319.901 713.943 324.541C714.682 325.375 715.057 327.229 714.5 328.062ZM693.26 301.911C686.859 312.672 678.885 322.312 670.167 331.218C669.979 331.406 669.609 331.406 669.239 331.588C668.682 331.031 668.031 330.385 667.479 329.734C661.542 322.5 655.698 315.172 649.578 308.031C648.187 306.364 648.37 305.526 649.672 303.953C656.255 295.791 662.838 287.536 669.239 279.187C670.354 277.703 671.094 277.521 672.391 278.817C679.161 285.401 686.026 291.989 692.703 298.755C693.354 299.312 693.724 301.166 693.26 301.911ZM670.63 273.343C670.536 273.531 670.354 273.531 669.797 273.901C668.312 272.698 666.922 271.583 665.531 270.468C658.849 265.276 652.172 260.083 645.495 255.073C643.922 253.87 643.828 253.036 644.568 251.271C647.536 244.5 650.318 237.64 653.01 230.682C653.75 228.828 654.401 228.64 655.974 229.567C663.953 234.484 672.021 239.401 679.995 244.411C680.739 244.875 681.479 246.359 681.297 247.192C679.068 256.463 675.547 265.182 670.63 273.343ZM652.823 222.708C652.823 225.12 651.708 225.302 649.672 224.375C641.047 220.39 632.328 216.677 623.703 212.781C622.864 212.411 621.755 211.208 621.755 210.463C621.937 204.807 622.312 199.151 622.588 193.031C624.073 193.401 625.651 193.677 627.135 194.14C634.552 196.552 642.062 198.963 649.484 201.375C651.62 202.026 652.823 203.229 652.729 205.458C652.917 211.208 652.917 216.958 652.823 222.708ZM623.703 214.64C632.328 218.531 641.047 222.338 649.672 226.229C650.969 226.786 652.083 227.437 651.526 229.198C649.391 237.177 646.333 244.687 641.88 252.198C637.151 249.14 632.698 246.265 628.151 243.484C623.885 240.885 619.62 238.286 615.167 235.786C613.312 234.765 612.849 233.838 613.87 231.703C616.187 226.692 618.323 221.5 620.271 216.213C621.104 214.453 621.568 213.708 623.703 214.64ZM619.62 210.927C618.599 210.651 617.766 210.463 616.932 210.281C607.844 207.495 598.755 204.713 589.661 202.026C587.807 201.468 587.068 200.817 587.255 198.687C587.625 194.885 587.531 191.083 587.719 186.536C594.948 187.651 602 188.672 608.953 189.875C611.922 190.338 614.797 190.989 617.766 191.823C618.693 192.099 619.901 192.843 620.083 193.583C621.104 199.245 621.01 204.995 619.62 210.927ZM616.187 189.505C607.469 188.114 598.568 186.536 589.849 185.239C587.719 184.958 586.698 184.125 586.047 182.083C585.026 179.026 583.542 176.057 582.057 172.812C582.802 172.625 583.448 172.349 584.099 172.349C592.542 172.718 601.167 173.182 609.604 173.739C610.531 173.828 611.646 174.203 612.109 174.849C615.448 179.114 617.766 183.937 619.344 189.968C617.766 189.687 616.932 189.687 616.187 189.505ZM585.12 184.495C577.328 184.218 570.557 183.849 563.88 183.661C560.448 183.567 556.927 183.567 553.495 183.661C551.729 183.755 550.896 183.104 550.338 181.437C549.693 179.672 548.766 177.911 547.838 175.963C548.766 175.687 549.505 175.224 550.25 175.13C558.781 174.297 567.406 173.458 575.937 172.531C578.161 172.255 579.646 173.088 580.573 175.036C582.057 178.005 583.448 180.88 585.12 184.495ZM548.484 183.661C544.87 183.937 541.25 184.031 537.635 184.495C531.141 185.146 524.463 185.979 517.974 186.724C517.047 186.812 516.026 186.812 515.187 186.442C514.635 186.166 514.172 185.052 514.354 184.495C514.542 183.849 515.469 183.198 516.12 183.01C523.167 181.062 530.401 179.302 537.542 177.448C538.656 177.172 539.859 176.984 540.974 176.797C545.979 175.687 548.391 177.817 548.484 183.661ZM539.026 175.312C530.958 177.354 522.797 179.302 514.818 181.437C512.776 181.989 511.479 181.713 510.37 179.489C511.109 179.026 511.76 178.468 512.594 178.099C519.177 175.312 525.854 172.531 532.443 169.843C537.172 167.896 540.229 169.099 543.479 174.297C541.713 174.666 540.323 174.942 539.026 175.312ZM533.276 167.338C532.349 167.708 531.422 168.172 530.495 168.541C523.63 171.416 516.672 174.297 509.901 177.26C507.583 178.281 505.917 177.911 503.969 176.151C504.708 175.5 505.266 174.849 506.01 174.385C510.833 171.234 515.838 168.265 520.755 165.021C523.443 163.166 526.042 163.073 528.823 164.463C530.307 165.203 531.885 165.76 533.37 166.411C533.276 166.781 533.276 167.062 533.276 167.338ZM504.338 178.651C504.432 179.026 504.432 179.396 504.526 179.765C500.536 181.989 496.547 184.218 492.562 186.536C492.099 186.442 491.635 186.349 491.078 186.26C494.229 183.661 497.198 181.062 500.536 178.651C501.37 178.099 503.042 178.651 504.338 178.651ZM488.667 185.979C488.109 185.979 487.458 185.979 486.812 185.979C488.943 183.104 490.984 180.135 493.489 177.541C494.229 176.703 496.364 177.078 497.849 176.984C497.937 177.354 498.031 177.635 498.219 178.005C494.974 180.599 491.818 183.291 488.667 185.979ZM484.489 186.073C483.844 186.166 483.099 186.26 482.453 186.349C483.193 183.567 483.844 180.692 485.141 178.099C485.698 176.984 488.292 176.797 490.057 176.239C490.239 176.614 490.521 176.89 490.703 177.26C488.667 180.229 486.625 183.198 484.489 186.073ZM471.969 207.218C470.859 209.63 469.651 212.041 468.542 214.453C468.167 215.286 467.703 216.213 467.333 217.052C465.755 220.666 465.203 220.942 460.469 219.088C463.807 215.104 466.963 211.208 470.114 207.406C470.672 207.312 471.323 207.218 471.969 207.218ZM465.943 192.38C462.51 191.823 459.078 191.265 455.276 190.708C457.224 187.745 459.172 186.812 462.047 188.39C463.901 189.411 465.943 190.338 467.984 191.172C467.239 191.635 466.594 192.01 465.943 192.38ZM463.807 193.864C463.161 194.328 462.604 194.791 462.141 195.255C458.432 195.437 454.63 195.718 450.641 195.906C451.474 193.495 452.495 192.099 454.906 192.474C457.687 193.031 460.656 193.495 463.807 193.864ZM460.193 197.297C459.729 197.849 459.359 198.317 459.078 198.87C455.276 199.797 451.568 200.724 447.766 201.562C447.578 201.281 447.302 201.005 447.114 200.817C447.766 199.89 448.323 198.406 449.062 198.317C452.771 197.76 456.484 197.479 460.193 197.297ZM447.578 203.604C451.104 202.583 454.719 201.745 458.245 200.817C458.151 201.375 458.151 201.838 458.151 202.302C454.349 203.88 450.453 205.458 446.651 207.031C446.375 206.661 446 206.385 445.724 206.01C446.375 205.271 446.838 203.88 447.578 203.604ZM442.661 202.859C434.318 206.01 425.693 208.89 417.25 211.854C416.974 211.948 416.693 211.854 416.417 211.854C415.859 207.776 418.828 203.229 422.724 202.489C428.844 201.192 434.963 200.078 441.271 198.963C442.573 198.687 443.87 198.781 445.167 198.593C445.448 198.963 445.724 199.333 446 199.708C444.891 200.817 443.963 202.396 442.661 202.859ZM418.734 213.338C426.156 210.651 433.76 208.052 441.271 205.458C442.109 205.177 442.943 205.083 443.87 204.807C444.609 206.661 444.703 208.052 442.755 209.073C434.13 213.62 425.411 218.161 416.786 222.708C416.323 222.984 415.766 222.984 415.213 223.172C413.078 218.161 414.193 215.01 418.734 213.338ZM411.781 239.588C405.286 245.521 398.891 251.646 392.12 258.041C389.427 254.703 387.849 251.088 386.922 247.099C386.739 246.448 387.479 245.245 388.13 244.781C395.734 239.125 403.526 233.651 411.13 228.088C412.521 227.067 413.266 227.437 413.911 229.015C416.88 235.135 416.88 235.041 411.781 239.588ZM412.708 223.911C412.708 224.562 412.151 225.302 411.594 225.765C403.708 231.427 395.641 237.083 387.667 242.739C387.385 242.927 387.016 243.015 386.182 243.297C385.625 238.843 385.625 234.672 386.739 230.588C386.833 230.125 387.385 229.567 387.849 229.385C395.641 225.12 403.526 220.942 411.318 216.771C411.5 216.677 411.87 216.677 412.521 216.677C412.521 219.182 412.708 221.593 412.708 223.911ZM390.26 258.692C390.542 259.25 390.448 260.271 390.078 260.734C383.495 268.802 376.812 276.87 370.229 284.937C370.135 285.031 369.859 285.031 369.396 285.218C365.87 280.859 363.739 275.755 362.437 270.286C362.255 269.635 362.812 268.521 363.364 267.968C370.135 261.38 377.094 254.797 383.864 248.302C384.047 248.12 384.422 248.12 384.792 247.932C386.646 251.734 388.594 255.166 390.26 258.692ZM369.672 289.297C370.323 289.854 370.88 290.317 371.437 290.781C375.422 294.213 379.505 297.646 383.495 301.166C384.141 301.724 384.792 303.208 384.51 303.859C380.432 313.224 376.073 322.5 371.807 331.87C371.62 332.239 371.344 332.422 370.693 333.26C366.891 330.291 362.901 327.599 359.38 324.354C351.958 317.677 351.958 317.489 357.062 309.052C360.677 302.932 364.667 296.901 368.469 290.875C368.651 290.317 369.114 289.948 369.672 289.297ZM368.469 333.63C369.583 334.557 370.51 335.114 369.859 336.875C366.797 346.245 363.828 355.609 360.864 364.979C360.771 365.349 360.677 365.718 360.583 366.276C359.656 366 359.01 366 358.453 365.625C351.588 361.177 345.187 356.166 340.182 349.765C339.531 348.932 339.161 347.354 339.531 346.427C343.151 337.802 346.859 329.271 350.568 320.646C350.755 320.276 351.125 319.901 351.588 319.437C352.239 319.995 352.703 320.37 353.167 320.739C358.265 325.099 363.364 329.458 368.469 333.63ZM343.427 355.979C347.969 359.781 352.515 363.401 357.338 366.927C359.193 368.317 359.937 369.338 359.38 371.838C357.526 380.375 356.042 389.088 354.37 397.718C354.276 398.458 354 399.109 353.724 400.593C349.734 397.718 346.026 395.396 342.776 392.521C338.88 389.182 335.359 385.474 331.833 381.765C331.094 380.927 330.349 379.448 330.63 378.515C332.854 369.614 335.265 360.802 337.677 351.995C337.771 351.62 338.047 351.343 338.51 350.692C340.088 352.552 341.573 354.406 343.427 355.979ZM355.203 405.323C355.203 404.948 355.484 404.672 355.667 404.114C356.318 404.302 356.875 404.396 357.338 404.578C366.891 409.771 377.094 413.578 387.479 416.541C388.963 417.005 390.078 417.38 390.078 419.328C390.172 428.599 390.354 437.875 390.542 447.057C390.542 447.614 390.448 448.172 390.354 449.281C388.13 448.724 386.088 448.354 384.234 447.614C374.87 443.812 365.5 439.916 356.224 435.833C355.203 435.37 353.906 433.885 354 432.958C354.187 423.776 354.739 414.593 355.203 405.323ZM390.172 414.041C390.172 414.317 389.984 414.593 389.708 415.338C387.573 414.781 385.255 414.317 383.213 413.484C374.776 409.958 366.239 406.432 357.896 402.63C356.969 402.26 355.854 400.593 356.042 399.661C357.614 390.297 359.38 381.021 361.047 371.75C361.141 371.192 361.328 370.635 361.51 369.89C362.719 370.354 363.364 370.635 364.109 370.911C372.922 374.437 381.729 377.963 390.542 381.39C391.838 381.948 393.047 382.135 392.859 383.989C391.838 394.099 391.005 404.114 390.172 414.041ZM394.437 418.396C407.052 421.364 419.849 422.849 432.739 423.682C433.573 423.776 434.318 424.239 434.875 424.521C435.245 428.041 435.427 431.01 435.802 433.979C436.542 440.474 437.193 447.057 438.026 453.547C438.302 455.776 437.75 456.422 435.427 456.333C421.891 455.588 408.625 453.922 395.364 450.859C393.229 450.396 392.302 449.468 392.302 447.151C392.208 438.245 392.026 429.343 391.745 420.531C391.745 418.489 392.396 417.932 394.437 418.396ZM393.229 452.156C398.422 453.177 403.245 454.385 408.349 455.031C417.531 456.239 426.802 457.166 436.078 458C438.12 458.187 438.859 459.021 439.234 460.875C440.713 469.224 442.385 477.567 444.057 485.916C444.521 488.14 443.963 488.885 441.646 488.698C427.359 487.864 413.266 486.104 399.354 482.765C398.333 482.484 396.943 481.463 396.849 480.63C395.458 471.635 394.25 462.635 393.047 453.734C392.859 453.271 393.047 452.901 393.229 452.156ZM397.776 484.432C403.245 485.453 408.443 486.75 413.729 487.401C423 488.604 432.463 489.531 441.734 490.37C444.057 490.552 445.073 491.297 445.724 493.521C447.766 501.036 449.989 508.547 452.125 516.057C452.307 516.614 452.307 517.172 452.495 518.286C449.713 518.192 447.208 518.286 444.703 517.911C432.182 516.151 419.755 514.297 407.328 512.255C406.213 512.073 404.641 510.864 404.266 509.75C401.948 502.146 399.906 494.541 397.87 486.843C397.682 486.286 397.776 485.453 397.776 484.432ZM447.578 493.89C446.932 491.666 447.396 490.739 449.896 490.739C465.943 491.203 481.802 490.182 497.755 488.14C499.609 487.864 500.536 488.422 501.094 490.276C503.411 498.067 505.823 505.765 508.234 513.552C508.422 514.109 508.422 514.666 508.604 515.687C504.896 516.151 501.651 516.708 498.312 516.896C484.864 517.541 471.417 518.005 457.969 518.656C455.557 518.75 454.536 517.823 453.885 515.593C451.75 508.359 449.713 501.125 447.578 493.89ZM456.203 520.51C461.859 520.51 467.427 520.698 472.989 520.323C484.026 519.677 495.25 518.75 506.286 517.729C508.698 517.541 509.901 517.911 510.739 520.323C512.963 526.63 515.375 532.75 517.88 538.968C518.62 540.916 518.344 541.75 516.12 542.026C499.979 543.974 483.937 544.901 467.703 544.437C466.776 544.437 465.203 543.698 464.922 542.953C461.859 535.906 458.984 528.672 456.109 521.531C455.927 521.531 456.109 521.161 456.203 520.51ZM469.745 546.479C485.51 546.849 501.094 545.922 516.766 543.791C518.995 543.51 520.104 544.067 521.031 546.109C523.167 550.932 525.484 555.755 527.802 560.578C528.172 561.411 528.547 562.338 529.193 563.916C521.776 564.656 514.818 565.489 508.047 565.864C499.239 566.328 490.427 566.328 481.614 566.604C479.114 566.698 477.443 565.864 476.146 563.729C473.083 558.255 469.932 552.88 466.406 546.849C467.984 546.666 468.818 546.479 469.745 546.479ZM480.042 568.552C481.062 568.458 481.989 568.364 483.005 568.364C497.849 567.531 512.594 566.698 527.432 565.771C529.474 565.677 530.583 566.047 531.604 567.812C533.552 571.427 535.87 574.953 538.005 578.474C538.375 579.125 538.656 579.776 539.302 580.885C536.797 581.26 534.573 581.724 532.443 581.812C519.922 582.463 507.489 583.021 494.974 583.39C493.302 583.484 491.167 582.463 489.963 581.26C486.349 577.453 483.099 573.281 479.667 569.203C479.76 569.109 479.948 568.828 480.042 568.552ZM531.885 565.401C538.375 564.286 543.849 563.453 549.229 562.245C560.266 559.739 571.302 557.146 582.245 554.364C584.75 553.713 585.859 554.271 586.698 556.682C587.901 560.203 589.385 563.729 590.87 567.161C591.609 568.922 591.427 570.036 589.292 570.5C574.271 573.745 559.245 577.083 544.219 580.328C543.292 580.515 541.713 580.328 541.344 579.776C538.281 575.229 535.224 570.593 531.885 565.401ZM585.12 547.87C583.542 543.047 581.687 538.224 579.833 533.495C579 531.359 579.463 530.432 581.687 529.692C588.646 527.375 595.693 524.963 602.646 522.552C602.646 522.646 602.739 522.734 602.739 522.828C611.739 519.026 620.828 515.317 629.729 511.328C631.864 510.401 632.885 510.588 633.437 512.906C634.828 518.468 636.312 523.942 637.891 529.411C638.542 531.823 636.87 532.286 635.385 532.843C625.094 537.021 614.797 541.286 604.411 545.364C599.771 547.218 594.859 548.427 590.036 550.187C587.255 551.396 586.047 550.557 585.12 547.87ZM632.698 504.838C630.656 498.25 628.526 491.76 626.297 485.265C625.651 483.505 626.021 482.39 627.781 481.557C643.458 474.135 658.297 465.604 672.672 456.052C673.042 455.776 673.505 455.682 674.432 455.218C674.896 456.333 675.359 457.166 675.641 458.093C677.495 464.401 679.255 470.708 681.109 477.015C681.667 478.958 681.297 480.26 679.531 481.37C665.62 490.646 651.245 498.901 636.224 506.229C634.552 507.156 633.437 507.062 632.698 504.838ZM676.844 456.239C676.38 454.661 676.286 453.64 677.864 452.526C690.943 443.437 703.182 433.422 714.406 422.291C714.682 422.015 715.057 421.922 715.703 421.458C716.073 422.291 716.63 422.942 716.818 423.682C718.672 430.271 720.526 436.854 722.104 443.531C722.38 444.739 721.917 446.776 721.083 447.614C710.234 458.651 698.177 468.385 685.562 477.291C685.099 477.567 684.542 477.849 683.708 478.312C683.151 476.734 682.687 475.531 682.318 474.229C680.463 468.297 678.698 462.265 676.844 456.239ZM716.724 416.823C716.167 415.708 715.703 414.875 715.333 413.948C712.364 406.989 709.396 400.13 706.708 393.078C706.338 392.057 706.521 390.297 707.172 389.557C716.536 379.63 725.161 369.057 732.489 357.463C732.677 357.187 733.047 357 733.88 356.26C736.016 360.802 738.057 364.979 739.911 369.151C741.396 372.489 742.786 375.922 743.896 379.448C744.271 380.651 744.271 382.411 743.62 383.432C736.573 395.213 727.948 405.692 718.484 415.614C718.114 416.078 717.557 416.359 716.724 416.823ZM735.552 355.797C735.182 354.87 734.995 353.385 735.458 352.64C741.021 342.718 745.568 332.515 748.63 321.479C748.719 321.109 749 320.833 749.463 320.088C750.114 321.109 750.667 321.849 751.042 322.687C753.729 328.807 756.51 334.833 758.922 340.958C759.667 342.906 759.755 345.317 759.292 347.354C756.88 357.557 752.802 367.109 747.885 376.291C747.422 377.125 746.958 377.87 746.125 379.073C745.474 377.776 745.104 377.036 744.734 376.291C741.578 369.521 738.521 362.656 735.552 355.797ZM747.239 318.698C744.641 329.734 740.375 340.12 734.625 350.047C734.437 350.416 734.068 350.786 733.51 351.437C732.859 350.604 732.307 349.953 731.932 349.302C727.573 342.349 723.307 335.39 718.948 328.343C718.396 327.416 718.114 325.838 718.578 325.005C723.864 315.453 728.224 305.437 731.193 294.864C731.286 294.489 731.562 294.213 731.844 293.656C732.396 294.026 732.953 294.213 733.234 294.677C737.682 301.354 742.135 307.937 746.495 314.708C747.146 315.729 747.516 317.489 747.239 318.698ZM729.802 292.265C727.297 303.302 722.937 313.599 717.281 323.333C717.094 323.614 716.724 323.797 716.354 324.172C715.797 323.521 715.239 323.057 714.776 322.406C709.213 315.547 703.646 308.776 698.177 301.911C697.526 301.078 697.062 299.406 697.432 298.666C702.443 289.578 706.521 280.114 709.213 270.099C709.302 269.729 709.583 269.541 710.141 268.708C713.479 272.14 716.724 275.385 719.875 278.724C722.937 282.062 725.906 285.495 728.687 289.114C729.521 289.948 729.984 291.338 729.802 292.265ZM687.417 249.698C693.724 254.89 700.213 260.083 706.427 265.463C707.172 266.109 707.823 267.687 707.635 268.614C705.318 278.817 701.234 288.463 696.042 297.552C695.948 297.739 695.578 297.922 695.208 298.203C694.745 297.828 694.187 297.458 693.724 297.088C686.953 290.505 680.088 283.916 673.411 277.239C672.766 276.593 672.302 274.922 672.672 274.182C677.12 266.021 680.739 257.484 683.151 248.489C683.245 248.213 683.427 248.026 683.802 247.286C685.005 248.026 686.396 248.771 687.417 249.698ZM682.036 243.484C678.141 240.979 674.708 238.661 671.187 236.526C666.271 233.557 661.172 230.776 656.161 227.713C655.328 227.156 654.401 225.859 654.401 224.932C654.401 218.442 654.583 211.854 654.771 205.364C654.771 204.901 654.958 204.437 655.141 203.604C656.349 204.067 657.458 204.437 658.479 204.901C665.531 208.422 672.766 211.854 679.812 215.474C680.927 216.031 682.224 217.14 682.5 218.161C684.078 226.416 683.891 234.578 682.036 243.484ZM678.792 212.781C671.187 209.166 663.583 205.547 655.974 201.838C655.141 201.468 654.12 200.817 653.844 200.078C651.432 194.14 649.114 188.114 646.516 181.437C651.708 183.474 656.625 185.703 661.818 187.276C670.443 189.875 674.989 196.276 678.234 203.974C679.443 206.942 680.37 210.093 681.667 213.708C680.088 213.338 679.443 213.062 678.792 212.781ZM647.724 188.854C649.114 192.286 650.505 195.718 651.896 199.151C651.62 199.333 651.432 199.521 651.156 199.708C650.411 199.521 649.578 199.245 648.833 199.057C640.489 196.458 632.141 193.958 623.885 191.265C622.958 190.989 621.755 190.432 621.38 189.687C619.25 184.864 617.396 179.953 615.078 174.203C621.755 175.593 628.062 177.26 634.458 178.099C641.323 178.932 645.219 182.922 647.724 188.854ZM626.114 174.666C617.859 173.552 610.068 171.885 604.781 164.557C603.667 162.979 601.719 161.958 600.146 160.661C608.677 156.578 634.088 167.338 639.005 177.448C634.276 176.427 630.286 175.13 626.114 174.666ZM602.833 165.203C604.969 166.875 606.823 168.916 608.864 170.771C608.771 170.953 608.583 171.234 608.489 171.416C607.75 171.416 607.099 171.604 606.359 171.51C598.38 171.234 590.219 170.953 582.245 170.401C580.854 170.307 579.37 169.562 578.255 168.729C575.474 166.411 572.969 163.812 570.281 161.312C570.375 160.937 570.375 160.567 570.463 160.104C578.349 159.916 586.323 159.177 594.114 159.734C597.177 160.01 600.146 163.166 602.833 165.203ZM576.864 169.474C576.771 169.75 576.588 170.12 576.495 170.401C575.661 170.489 574.734 170.677 573.896 170.771C565.458 171.698 556.927 172.625 548.484 173.458C547.281 173.552 545.797 172.901 544.776 172.161C543.198 170.953 541.807 169.474 539.766 167.526C541.25 166.968 542.271 166.599 543.198 166.317C550.062 164.739 557.016 163.073 563.88 161.682C565.177 161.401 566.849 161.776 567.87 162.422C570.927 164.651 573.896 167.151 576.864 169.474ZM561.932 160.01C558.781 160.755 555.625 161.312 552.474 162.146C548.391 163.166 544.219 164.187 540.229 165.39C538.193 166.041 536.427 166.041 534.479 164.927C532.531 163.812 530.307 163.073 527.708 161.958C528.729 161.218 529.286 160.755 529.937 160.474C533.646 158.901 537.448 157.505 541.156 155.838C545.797 153.703 550.156 153.703 554.885 155.838C557.297 156.953 559.802 157.88 562.213 158.901C562.026 159.364 561.932 159.64 561.932 160.01ZM536.802 155.745C534.573 156.578 532.068 157.229 530.12 158.62C524.281 162.703 518.531 160.01 512.13 159.271C518.901 151.385 534.203 148.51 542.828 153.703C540.51 154.448 538.656 155.005 536.802 155.745ZM519.177 162.146C519.547 162.239 519.828 162.515 520.474 162.979C515.838 165.948 511.479 168.729 507.12 171.416C505.823 172.255 504.432 172.995 503.318 174.109C501 176.333 498.682 175.687 495.62 174.573C496.828 173.088 497.755 171.885 498.864 170.677C500.443 169.01 502.297 167.526 503.687 165.666C507.864 160.01 513.521 160.937 519.177 162.146ZM503.781 163.255C501.187 165.948 498.219 168.453 495.989 171.416C493.578 174.76 490.521 175.224 485.88 174.76C488.016 170.401 489.87 166.411 491.818 162.515C492.005 162.146 492.562 161.864 493.026 161.776C496.922 161.401 500.812 161.125 504.708 160.843C504.802 161.125 504.896 161.312 504.989 161.588C504.614 162.146 504.245 162.791 503.781 163.255ZM484.12 174.109C482.917 175.776 479.391 175.776 476.885 176.427C476.703 176.521 476.052 175.5 475.958 174.849C475.682 173.739 475.495 172.625 475.401 171.416C474.568 164.739 473.641 165.76 480.318 164C483.099 163.255 485.88 162.885 489.406 162.239C487.458 166.875 486.437 170.953 484.12 174.109ZM475.031 180.974C475.495 183.198 475.958 185.422 476.328 187.745C475.864 187.833 475.495 188.021 475.031 188.114C474.661 188.208 474.292 188.39 474.01 188.484C472.25 186.349 470.396 184.125 468.26 181.62C470.396 180.88 471.88 180.229 473.364 179.953C473.917 179.859 474.937 180.51 475.031 180.974ZM469.094 185.515C470.114 186.724 471.135 187.927 472.156 189.224C471.599 189.411 471.042 189.687 470.578 189.875C467.609 188.484 464.734 187.187 461.859 185.885C464.828 182.458 466.406 182.364 469.094 185.515ZM454.161 183.474C451.104 181.901 447.484 181.25 444.146 180.135C444.057 179.859 443.963 179.583 443.87 179.302C447.672 177.26 451.474 175.224 455.37 173.276C455.833 173.088 456.76 173.364 457.224 173.739C459.823 176.057 462.323 178.375 465.109 180.974C461.489 183.755 458.521 185.703 454.161 183.474ZM456.573 185.797C454.255 188.672 452.495 190.708 448.875 190.245C444.333 189.687 439.604 189.875 434.875 189.781C433.854 189.781 432.833 189.687 431.812 189.687C431.625 189.411 431.536 189.041 431.349 188.76C434.224 186.536 437.005 184.312 439.974 182.177C440.437 181.807 441.364 181.62 441.922 181.807C446.745 183.01 451.38 184.401 456.573 185.797ZM431.443 191.729C437.375 191.635 443.312 191.729 449.896 191.823C448.599 195.067 447.114 196.458 444.333 196.833C437.838 197.76 431.349 198.963 424.854 200.172C423.927 200.354 423 200.541 421.979 200.724C422.818 196.552 427.823 191.729 431.443 191.729ZM414.838 202.953C409.646 204.343 404.641 206.479 399.443 208.239C398.516 208.515 397.682 208.89 396.755 209.166C396.479 208.89 396.198 208.515 395.828 208.239C399.354 204.25 402.229 199.333 406.495 196.552C411.5 193.213 417.901 193.031 424.302 192.75C421.146 196.182 420.406 201.468 414.838 202.953ZM398.979 210.187C403.62 208.89 408.068 206.942 412.614 205.271C413.542 204.901 414.656 204.713 415.677 204.531C415.859 208.89 412.984 213.708 409.646 215.38C403.432 218.531 397.406 221.781 391.099 225.026C390.172 225.489 389.245 225.953 388.318 226.416C388.036 226.14 387.76 225.953 387.479 225.677C390.26 219.833 390.818 212.599 398.979 210.187ZM384.792 228.364C384.604 228.922 383.958 229.385 383.401 229.755C377.37 234.302 371.344 238.75 365.224 243.203C364.76 243.484 364.297 243.76 363.182 244.317C364.76 237.729 366.797 231.89 370.51 227.25C375.333 221.593 382.38 218.625 388.87 215.01C389.057 215.192 389.151 215.38 389.333 215.567C387.943 219.833 386.37 224.099 384.792 228.364ZM382.38 232.63C382.75 232.354 383.213 232.354 383.771 232.26C383.958 236.432 384.141 240.515 384.234 244.5C384.234 245.245 383.495 246.078 382.937 246.635C376.536 252.755 370.047 258.875 363.552 265C363.088 265.463 362.531 265.739 361.417 266.573C361.234 264.073 360.953 262.125 360.953 260.177C361.047 256.932 361.328 253.588 361.698 250.343C361.792 249.416 362.349 248.213 363.088 247.656C369.583 242.552 375.979 237.547 382.38 232.63ZM361.885 275.015C363.182 277.797 364.015 280.953 365.87 283.364C368.375 286.609 367.818 288.833 365.594 291.896C361.047 298.573 357.062 305.62 352.703 312.578C352.239 313.317 351.776 313.968 351.031 315.172C346.578 309.146 343.703 303.026 342.219 296.255C342.036 295.51 342.406 294.489 342.87 293.843C348.25 286.703 353.724 279.557 359.286 272.416C359.474 272.14 359.937 272.047 360.677 271.583C361.141 272.88 361.417 273.995 361.885 275.015ZM343.703 305.989C345.281 309.146 347.229 312.114 348.901 315.359C349.364 316.286 349.828 317.771 349.453 318.698C345.745 327.416 341.943 336.041 338.14 344.666C338.047 344.942 337.677 345.224 336.75 346.057C334.338 341.422 332.109 337.156 329.885 332.797C326.734 326.672 326.64 320.833 330.63 314.896C333.505 310.442 335.823 305.62 338.417 300.984C338.88 300.151 339.625 299.312 340.552 298.015C341.755 301.166 342.594 303.672 343.703 305.989ZM330.073 337.62C331.557 340.583 333.594 343.37 335.172 346.333C335.729 347.448 336.286 348.932 336.005 350.047C333.875 358.484 331.463 366.833 329.146 375.177C328.958 375.734 328.682 376.198 328.307 377.125C327.474 376.109 326.823 375.458 326.359 374.713C322.187 368.411 319.406 361.359 317.458 354.031C317.182 353.015 316.995 351.807 317.364 350.88C319.776 343.276 322.281 335.672 324.786 328.062C324.88 327.786 325.156 327.599 325.713 327.047C327.198 330.849 328.401 334.37 330.073 337.62ZM329.234 384.359C329.234 383.989 329.515 383.713 329.703 383.432C335.172 388.161 340.458 392.802 345.932 397.343C347.505 398.646 349.177 399.849 350.937 400.776C353.255 401.984 353.63 403.557 353.443 405.968C352.792 414.041 352.516 422.109 352.052 430.271C352.052 431.104 351.864 431.937 351.776 433.239C350.474 432.495 349.547 432.031 348.713 431.474C341.015 426.468 334.057 420.531 328.219 413.484C327.38 412.463 326.453 410.885 326.547 409.682C327.292 401.239 328.307 392.802 329.234 384.359ZM326.64 414.968C327.937 416.172 328.588 416.729 329.234 417.38C335.265 423.963 342.219 429.526 349.734 434.349C350.755 435 351.864 436.39 352.052 437.599C352.979 446.036 353.63 454.474 354.37 462.916C354.37 463.286 354.276 463.656 354.094 464.677C351.958 463.286 350.01 462.265 348.437 460.875C342.406 455.588 336.469 450.302 330.63 444.739C329.234 443.349 328.307 440.937 328.031 438.896C327.292 432.125 326.917 425.26 326.453 418.396C326.359 417.562 326.453 416.729 326.64 414.968ZM354 438.708C354 438.338 354.187 437.968 354.463 437.13C357.614 438.708 360.489 440.562 363.552 441.771C371.526 444.828 379.687 447.703 387.849 450.583C389.521 451.135 390.911 451.599 391.193 453.828C392.12 462.265 393.323 470.708 394.437 479.052C394.531 479.703 394.437 480.354 394.531 481.557C391.838 480.817 389.427 480.354 387.109 479.422C377.651 475.531 368.187 471.541 358.823 467.37C357.802 466.906 356.599 465.698 356.505 464.771C355.484 456.146 354.739 447.427 354 438.708ZM359.937 470.245C369.953 475.62 380.526 479.609 391.469 482.578C394.25 483.317 395.458 484.526 396.104 487.495C397.495 494.172 399.536 500.755 401.297 507.338C401.578 508.359 401.766 509.38 402.229 511.052C398.891 510.125 396.01 509.567 393.417 508.547C384.422 504.838 375.333 501.031 366.521 496.953C364.943 496.213 363.458 494.265 362.995 492.5C360.953 485.547 359.38 478.495 357.614 471.448C357.526 470.89 357.526 470.333 357.432 469.317C358.453 469.687 359.286 469.87 359.937 470.245ZM365.87 499.177C366.703 499.458 367.26 499.458 367.818 499.734C378.297 505.208 389.427 509.286 400.833 512.536C401.948 512.812 403.338 513.739 403.802 514.76C406.771 521.437 409.552 528.302 412.427 535.073C412.614 535.442 412.614 535.906 412.802 536.927C410.016 536.182 407.604 535.718 405.286 534.791C396.016 530.896 386.739 526.911 377.557 522.828C376.536 522.364 375.422 521.531 375.052 520.604C371.901 514.015 368.932 507.25 365.87 500.567C365.776 500.291 365.87 499.828 365.87 499.177ZM405.474 514.948C405.75 514.666 406.031 514.484 406.213 514.203C406.958 514.297 407.792 514.297 408.531 514.484C422.443 517.635 436.359 519.489 450.547 520.047C452.682 520.14 453.792 520.88 454.536 522.922C456.667 528.672 459.172 534.422 461.396 540.078C461.859 541.192 462.234 542.396 462.88 544.437C458.338 544.067 454.349 544.067 450.271 543.51C439.604 541.932 428.844 540.078 418.177 538.317C417.25 538.13 415.859 537.573 415.583 536.833C412.245 529.692 408.812 522.271 405.474 514.948ZM430.979 542.771C441.088 544.067 451.38 544.995 461.583 546.203C462.792 546.385 464.364 546.942 464.922 547.776C468.26 553.343 471.323 559 474.38 564.656C474.474 564.843 474.474 565.213 474.568 565.864C473.547 565.864 472.62 566.047 471.786 565.953C458.802 564.192 445.911 562.432 432.927 560.39C431.161 560.114 429.213 558.63 428.198 557.146C424.948 552.786 422.167 548.239 419.198 543.698C418.641 542.771 418.271 541.75 417.531 540.172C422.536 541.192 426.713 542.213 430.979 542.771ZM435.896 563.078C448.599 564.75 461.213 566.416 473.917 567.995C475.958 568.276 477.443 568.828 478.651 570.593C480.875 573.838 483.562 576.807 485.974 579.864C486.719 580.703 487.364 581.63 488.109 582.463C487.922 582.739 487.828 583.114 487.646 583.39C481.338 582.739 474.937 582.276 468.63 581.442C462.51 580.609 456.484 579.401 450.359 578.104C448.411 577.64 446.375 576.62 444.797 575.323C441.271 572.166 438.026 568.739 434.687 565.401C434.13 564.843 433.76 564.099 432.833 562.802C434.318 562.896 435.057 562.989 435.896 563.078ZM459.635 581.906C469.094 583.021 478.651 584.041 488.109 585.245C489.776 585.432 491.542 586.265 492.932 587.286C495.901 589.51 498.682 591.922 501.739 594.427C490.333 597.489 457.969 588.495 452.588 580.609C455.182 581.073 457.411 581.63 459.635 581.906ZM494.786 586.359C494.974 586.083 495.062 585.802 495.25 585.526C497.568 585.526 499.979 585.614 502.297 585.432C514.26 584.687 526.318 583.854 538.193 583.021C540.141 582.833 541.437 583.208 542.641 584.875C544.588 587.562 546.906 590.067 549.411 593.036C548.208 593.312 547.463 593.593 546.724 593.687C534.854 594.333 522.885 594.89 511.016 595.635C508.047 595.817 505.547 594.984 503.224 593.13C500.443 590.812 497.568 588.583 494.786 586.359ZM543.479 583.297C543.661 583.021 543.755 582.651 543.943 582.37C545.891 582 547.838 581.724 549.781 581.26C563.047 578.291 576.213 575.416 589.479 572.354C591.984 571.797 593.281 572.078 594.114 574.578C594.859 576.713 595.88 578.849 596.896 580.979C597.641 582.651 597.177 583.578 595.505 583.948C581.781 586.916 568.052 589.885 554.328 592.76C553.588 592.942 552.568 592.942 552.104 592.479C549.135 589.422 546.354 586.359 543.479 583.297ZM595.323 572.911C594.484 570.963 595.969 570.687 597.271 570.224C608.677 566.047 620.177 561.781 631.583 557.515C635.109 556.218 638.448 554.547 642.807 552.692C643.083 557.146 643.458 560.854 643.547 564.562C643.547 565.213 642.526 566.234 641.786 566.51C628.432 571.703 615.078 576.901 601.63 581.906C600.885 582.187 599.307 581.536 598.937 580.797C597.547 578.291 596.432 575.51 595.323 572.911ZM639.745 552.041C631.401 555.567 622.958 559.093 614.614 562.614C614.614 562.526 614.521 562.432 614.521 562.338C608.489 564.38 602.463 566.416 596.344 568.552C594.484 569.203 593.469 568.828 592.818 566.88C591.427 563.172 589.943 559.463 588.364 555.843C587.344 553.62 587.901 552.692 590.219 551.859C601.536 547.87 612.849 543.791 624.073 539.614C627.969 538.13 631.677 536.276 635.479 534.609C638.542 533.218 638.911 533.401 639.562 536.557C640.396 540.359 640.953 544.161 641.88 547.87C642.344 550.187 641.599 551.302 639.745 552.041ZM639.469 528.302C638.078 522.828 636.5 517.265 634.922 511.885C634.364 510.125 634.739 509.01 636.5 508.177C652.172 500.849 666.922 492.13 681.391 482.672C681.573 482.578 681.76 482.578 682.687 482.484C683.708 487.864 684.729 493.151 685.656 498.343C685.838 499.364 685.838 500.479 686.12 501.5C686.583 503.354 685.932 504.651 684.266 505.578C670.26 513.552 656.443 521.531 642.526 529.599C640.859 530.526 640.026 530.343 639.469 528.302ZM723.219 439.916C721.547 433.885 719.693 427.859 718.208 421.739C717.932 420.531 718.114 418.677 718.859 417.843C728.042 408.104 736.479 397.807 743.713 386.495C744.083 385.937 744.547 385.474 745.292 384.734C745.755 385.661 746.219 386.213 746.401 386.864C748.167 393.635 749.833 400.312 751.411 407.083C751.687 408.291 751.411 409.864 750.76 410.885C743.807 422.479 735.271 432.864 726 442.604C725.719 442.974 725.255 443.161 724.422 443.718C723.864 442.328 723.588 441.12 723.219 439.916ZM751.318 398.271C750.021 393.541 748.63 388.812 747.422 384.083C747.146 382.968 747.146 381.484 747.609 380.557C752.989 370.823 757.625 360.713 760.687 349.953C760.776 349.677 760.963 349.489 761.703 348.468C764.208 359.692 769.401 369.802 764.766 380.927C761.614 388.442 758.552 395.859 755.401 403.281C755.026 404.114 754.38 404.859 753.453 406.343C752.526 403.187 751.969 400.682 751.318 398.271ZM748.536 312.39C748.167 312.484 747.885 312.484 747.516 312.578C746.031 310.26 744.641 307.849 743.062 305.62C739.911 301.078 736.755 296.625 733.604 292.078C733.047 291.151 732.307 289.948 732.489 289.021C734.161 280.208 734.344 271.396 733.604 262.495C733.604 262.218 733.698 261.937 733.88 260.823C739.448 267.875 745.292 274.271 747.979 282.25C751.224 292.078 750.297 302.375 748.536 312.39ZM744.641 271.307C738.521 262.958 730.172 255.817 729.338 243.573C735.828 252.661 741.396 261.286 744.641 271.307ZM731.005 258.599C732.677 267.593 732.677 276.593 731.099 285.682C731.005 286.239 730.729 286.703 730.448 287.63C729.708 286.979 729.057 286.609 728.594 286.052C722.937 280.021 717.281 273.995 711.625 267.781C710.786 266.854 710.234 265.182 710.417 263.979C711.713 255.911 712.088 247.838 711.068 239.771C710.974 239.307 711.161 238.843 711.25 237.916C712.271 238.567 713.016 238.937 713.573 239.495C718.766 244.781 724.052 249.974 729.245 255.354C730.172 256.187 730.823 257.396 731.005 258.599ZM702.812 214.177C711.25 217.328 728.594 241.906 728.594 251.271C727.667 250.437 727.021 249.88 726.37 249.234C721.641 244.687 716.818 240.234 711.995 235.692C711.161 234.948 710.417 233.927 709.953 232.911C707.542 226.974 705.13 220.942 702.812 214.916C702.812 214.823 702.812 214.547 702.812 214.177ZM707.172 231.979C706.338 231.146 705.875 230.682 705.318 230.312C698.823 225.765 692.146 221.317 685.75 216.771C684.818 216.12 683.984 215.192 683.614 214.265C681.016 208.333 678.604 202.396 676.104 196.458C675.917 195.995 675.823 195.625 675.547 194.791C690.661 199.708 706.245 217.885 707.172 231.979ZM666.177 182.177C672.854 187.187 679.625 192.099 686.396 197.109C686.12 197.385 685.932 197.76 685.656 198.036C678.604 193.583 670.167 190.802 665.713 182.828C665.807 182.547 665.995 182.364 666.177 182.177ZM665.901 186.26C665.807 186.536 665.713 186.724 665.531 187C663.396 186.166 661.172 185.239 659.036 184.401C657.646 183.849 656.255 182.922 654.771 182.734C644.104 181.156 638.354 172.531 630.937 166.411C630.844 166.317 630.844 166.041 630.844 165.484C644.568 169.099 656.255 175.963 665.901 186.26ZM612.755 158.526C601.255 159.271 590.5 156.578 580.021 149.995C591.984 150.364 602.463 153.703 612.755 158.526ZM589.755 157.416C585.026 157.692 580.948 157.968 576.771 158.25C573.896 158.437 571.021 158.807 568.146 159.177C567.682 159.271 567.125 159.364 566.755 159.271C562.213 157.323 557.667 155.281 552.937 153.151C561.005 148.14 580.667 150.364 589.755 157.416ZM562.583 147.864C556.739 151.573 539.12 151.849 531.141 148.51C541.62 143.968 551.729 146.843 562.583 147.864ZM530.031 146.656C522.146 150.646 513.984 147.771 505.823 149.807C508.328 147.213 525.484 145.172 530.031 146.656ZM503.135 151.666C507.401 151.291 511.76 151.015 516.12 150.646C517.135 150.552 518.156 150.646 519.458 150.739C512.5 158.526 503.875 160.567 494.323 159.271C495.344 155.281 499.146 151.942 503.135 151.666ZM476.146 157.041C481.245 155.745 486.437 154.541 491.724 153.427C492.838 153.151 494.042 153.151 495.25 152.963C493.026 156.578 492.005 160.937 486.719 161.125C483.656 161.218 480.687 162.422 477.63 162.979C476.516 163.166 475.031 164.557 474.292 162.328C473.364 159.734 474.104 157.505 476.146 157.041ZM474.198 175.87C474.292 176.614 473.453 177.354 472.989 178.099C472.989 178.187 472.807 178.187 472.713 178.187C467.521 180.692 467.521 180.692 463.344 176.703C461.771 175.224 460.193 173.646 457.969 171.51C462.88 169.656 467.146 168.078 471.417 166.687C471.786 166.599 472.896 167.526 472.989 168.078C473.453 170.677 473.917 173.276 474.198 175.87ZM471.88 158.807C472.989 164 472.989 164.093 468.26 165.76C465.573 166.687 462.792 167.708 460.193 168.823C456.021 170.489 454.719 170.213 450.917 166.041C457.875 163.63 464.922 161.218 471.88 158.807ZM453.698 171.328C453.052 171.885 452.401 172.437 451.75 172.812C449.62 174.109 447.114 174.942 445.26 176.614C440.437 180.88 435.151 178.468 429.771 177.911C430.328 177.448 430.792 176.984 431.443 176.614C435.521 174.297 439.604 171.885 443.682 169.656C448.229 167.151 449.344 167.338 453.698 171.328ZM440.531 168.265C440.625 168.453 440.713 168.541 440.807 168.729C435.057 172.255 429.213 175.687 423.375 179.208C423.094 178.745 422.818 178.281 422.63 177.724C428.474 174.666 434.5 171.51 440.531 168.265ZM436.911 180.786C437.005 181.062 437.005 181.343 437.099 181.62C434.036 184.312 431.073 187 428.01 189.599C427.823 189.781 427.547 189.968 427.266 190.062C421.979 190.896 416.693 191.729 410.943 192.099C411.963 191.083 412.984 189.968 414.193 189.041C416.88 186.812 419.661 184.776 422.354 182.547C426.896 178.838 431.906 180.599 436.911 180.786ZM418.552 182.364C411.781 187.833 406.677 195.906 396.755 197.015C403.338 191.265 409.646 185.052 418.552 182.364ZM401.766 198.224C398.052 203.135 395.458 208.146 391.469 211.578C386.922 215.38 381.083 217.604 375.703 220.479C382.01 210.557 388.87 201.375 401.766 198.224ZM374.87 215.474C375.146 215.656 375.333 215.937 375.609 216.12C372.271 221.317 369.302 226.786 362.719 229.291C366.797 224.656 370.786 220.109 374.87 215.474ZM365.87 231.146C364.015 236.713 362.349 242 360.401 247.192C359.937 248.396 358.453 249.323 357.526 250.343C354 254.057 350.474 257.765 346.953 261.474C346.208 262.218 345.562 262.958 344.63 263.885C344.167 255.448 356.875 235.968 365.87 231.146ZM342.406 257.672C342.682 257.765 342.963 257.948 343.151 258.041C342.5 267.593 336.562 274.646 331.463 282.062C331.094 281.88 330.719 281.692 330.443 281.505C334.432 273.531 338.51 265.646 342.406 257.672ZM338.698 275.479C339.068 281.88 339.437 288.182 339.807 294.489C339.807 295.047 339.531 295.604 339.255 296.067C335.359 303.114 331.463 310.26 327.568 317.307C327.38 317.583 327.104 317.864 326.823 318.234C321.536 310.349 328.958 283.734 338.698 275.479ZM323.672 303.396C323.672 305.807 323.484 307.755 323.578 309.703C323.859 313.505 324.229 317.401 324.505 321.203C324.599 321.942 324.693 322.776 324.505 323.521C321.911 330.755 319.13 337.989 316.531 345.13C312.911 340.401 317.828 310.536 323.672 303.396ZM310.594 367.854C311.245 359.599 311.802 351.343 312.448 343.088C315.417 348.562 314.489 361.547 311.432 367.942C311.151 367.942 310.875 367.942 310.594 367.854ZM315.417 358.39C315.698 358.39 315.974 358.39 316.344 358.39C317.646 361.359 318.755 364.422 320.239 367.297C322.187 371.005 324.599 374.625 326.64 378.333C327.292 379.448 327.844 380.838 327.755 382.041C326.917 390.021 325.989 397.995 324.969 405.88C324.88 406.432 324.693 406.896 324.323 408.104C318.849 401.146 315.604 393.729 313.562 385.75C311.151 376.479 314.396 367.479 315.417 358.39ZM313.099 391.5C313.469 392.057 313.844 392.614 314.12 393.172C317.182 398.828 320.239 404.484 323.302 410.146C323.948 411.255 324.599 412.557 324.599 413.854C325.062 421.088 325.344 428.323 325.62 435.463C325.62 435.927 325.526 436.39 325.344 437.687C315.234 423.406 312.078 408.104 313.099 391.5ZM318.015 430.916C327.104 439.635 328.219 451.229 330.073 462.635C323.859 452.901 320.984 441.864 318.015 430.916ZM333.594 466.067C332.297 460.687 330.906 455.401 329.609 450.114C329.422 449.281 329.422 448.448 329.328 447.151C330.167 447.614 330.719 447.797 331 448.172C337.489 455.312 345.005 461.245 353.073 466.349C354 466.906 354.833 467.922 355.114 468.942C357.062 476.547 358.917 484.245 360.771 491.942C360.864 492.224 360.771 492.5 360.677 493.614C358.172 491.942 355.948 490.739 354.094 489.161C349.083 484.802 344.078 480.354 339.161 475.901C336.38 473.208 334.521 469.963 333.594 466.067ZM340.922 480.073C347.229 485.083 353.724 490.088 359.937 495.281C361.417 496.489 362.812 498.067 363.552 499.828C366.151 505.302 368.469 510.958 370.786 516.521C371.062 517.078 371.25 517.729 371.437 518.468C361.047 516.245 339.995 490.646 338.51 478.125C339.531 478.87 340.182 479.515 340.922 480.073ZM356.781 511.698C356.969 511.515 357.151 511.328 357.338 511.14C360.401 513.552 363.364 516.245 366.703 518.192C371.901 521.25 376.073 525.057 378.854 530.526C380.338 533.401 382.38 535.906 383.864 538.968C372.828 531.734 364.297 522.271 356.781 511.698ZM382.937 533.401C381.266 531.271 379.969 528.859 378.578 526.536C378.76 526.354 378.948 526.166 379.135 525.984C382.193 527.375 385.068 528.948 388.224 530.156C396.104 533.125 404.083 535.812 412.057 538.593C413.078 538.968 414.469 539.338 415.026 540.172C418.828 546.109 422.443 552.041 426.432 558.536C425.323 558.349 424.484 558.349 423.838 558.073C414.099 554.083 404.266 550.281 394.62 546.015C388.963 543.698 386.37 538.036 382.937 533.401ZM397.87 550.281C398.703 550.557 399.443 550.838 400.281 551.114C409.088 554.364 417.901 557.515 426.713 560.76C427.917 561.224 429.213 561.781 430.141 562.708C433.76 566.416 437.286 570.312 440.807 574.114C440.995 574.396 441.177 574.765 441.734 575.88C424.672 570.593 409.088 564.38 397.87 550.281ZM453.698 586.265C445.63 582.463 437.375 578.755 429.307 574.953C429.495 574.578 429.588 574.302 429.771 573.932C438.12 577.083 447.766 577.828 454.161 585.338C453.979 585.614 453.792 585.896 453.698 586.265ZM511.849 601.385C502.578 599.807 493.208 598.135 483.937 596.562C484.026 596.187 484.026 595.817 484.12 595.448C491.354 596.099 498.776 596.562 506.01 597.396C508.141 597.672 510.276 598.974 512.312 599.807C512.224 600.271 512.036 600.828 511.849 601.385ZM555.443 600.547C545.609 601.01 535.687 601.755 525.854 601.755C521.776 601.755 517.693 599.807 513.614 598.692C513.333 598.599 513.151 598.229 512.406 597.489C516.12 597.396 519.177 597.396 522.333 597.208C530.213 596.745 538.281 596.562 546.073 595.354C551.083 594.614 554.328 596.375 557.943 599.995C556.833 600.271 556.182 600.547 555.443 600.547ZM555.255 595.354C555.349 595.078 555.349 594.797 555.443 594.521C556.552 594.245 557.573 594.057 558.687 593.776C570.557 591.182 582.521 588.583 594.396 585.896C598.568 584.968 598.474 584.687 600.516 588.495C600.885 589.234 601.255 589.974 601.719 591.088C600.328 591.552 599.307 592.015 598.198 592.297C587.161 594.708 576.031 597.026 564.995 599.343C560.729 600.271 558.224 597.302 555.255 595.354ZM573.989 600.083C583.729 597.765 593.469 595.354 603.203 593.036C603.297 593.406 603.391 593.87 603.484 594.245C593.838 596.932 584.005 599.156 573.989 600.083ZM606.453 593.224C606.359 592.849 606.266 592.479 606.078 592.109C617.302 587.843 628.614 583.578 639.745 579.401C639.838 579.588 639.932 579.864 640.026 580.052C629.359 585.708 618.135 589.974 606.453 593.224ZM638.724 577.734C628.245 581.812 617.578 585.802 607.005 589.698C604.411 590.625 600.885 587.843 601.255 585.062C601.349 584.411 602.646 583.672 603.484 583.297C611.088 580.515 618.88 577.922 626.391 575.041C631.213 573.281 635.849 571.057 640.583 569.109C641.417 568.739 642.344 568.458 643.271 568.182C644.292 573.375 643.271 575.88 638.724 577.734ZM640.953 533.958C640.859 533.218 642.062 531.916 642.995 531.359C651.62 526.63 660.427 522.088 669.052 517.265C673.969 514.484 678.516 511.328 683.427 508.359C684.266 507.802 685.193 507.25 686.12 506.786C686.489 506.875 686.859 507.062 687.229 507.156C687.323 512.906 687.51 518.656 687.417 524.312C687.417 524.963 686.489 525.797 685.838 526.166C672.854 533.682 659.87 541.192 646.885 548.609C646.146 548.984 645.312 549.166 644.292 549.541C642.901 544.161 641.786 539.057 640.953 533.958ZM646.239 550.838C659.13 543.51 671.927 536.182 684.911 528.948C685.469 528.672 686.12 528.484 687.604 528.021C686.583 533.031 685.75 537.39 684.729 541.75C684.542 542.396 683.802 543.047 683.151 543.416C671.37 550.281 659.5 557.052 647.724 563.823C647.26 564.099 646.703 564.192 645.682 564.562C645.219 560.484 644.755 556.864 644.568 553.25C644.474 552.416 645.495 551.302 646.239 550.838ZM645.401 577.916C645.219 577.64 645.031 577.271 644.849 576.989C648.37 575.229 651.802 573.468 655.328 571.614C655.422 571.797 655.51 571.984 655.604 572.166C652.172 574.114 648.833 575.974 645.401 577.916ZM677.213 556.125C667.479 562.151 657.37 567.718 647.349 573.468C646.797 573.745 646.146 573.838 645.495 574.026C644.568 567.995 645.219 567.161 649.948 564.468C659.963 559 669.891 553.25 679.719 547.682C680.646 547.218 681.479 546.666 682.318 546.109C682.594 546.291 682.781 546.479 683.057 546.666C681.667 550.187 680.552 554.083 677.213 556.125ZM683.891 551.021C685.005 548.057 684.911 544.625 687.693 542.396C695.948 535.812 704.203 529.229 712.364 522.734C712.552 522.552 712.828 522.552 713.109 522.364C713.292 522.552 713.479 522.734 713.661 522.922C706.245 534.791 695.114 542.771 683.891 551.021ZM714.682 518.099C706.708 524.776 698.641 531.453 690.661 538.13C689.922 538.781 688.901 539.245 687.604 539.984C688.161 535.161 688.625 530.896 689.364 526.63C689.458 525.89 690.385 525.239 691.036 524.776C701.052 516.521 711.25 508.265 721.271 500.015C721.641 499.64 722.198 499.458 722.661 499.177C722.844 499.364 723.125 499.552 723.307 499.64C721.177 506.229 720.432 513.276 714.682 518.099ZM723.031 508.64C723.031 508.083 723.031 507.432 723.125 506.875C724.422 498.901 727.948 492.406 733.88 486.75C738.057 482.765 741.208 477.755 744.734 473.208C745.38 472.468 745.937 471.635 746.588 470.89C746.776 471.078 747.052 471.26 747.239 471.354C742.786 485.916 733.604 497.692 723.031 508.64ZM753.172 445.015C752.802 456.239 749 466.067 741.672 474.604C736.943 480.073 732.489 485.729 727.391 491.942C727.109 490.552 726.833 489.995 726.927 489.531C727.203 484.432 727.391 479.333 727.76 474.229C727.854 473.12 728.411 471.817 729.151 470.89C736.573 461.62 744.083 452.437 751.594 443.161C751.969 442.698 752.432 442.328 753.453 441.307C753.266 443.067 753.266 444.088 753.172 445.015ZM749.182 443.531C742.786 451.323 736.385 459.297 729.984 467.182C729.521 467.833 728.781 468.297 727.667 469.317C727.484 467.182 727.297 465.698 727.109 464.213C726.646 460.317 726.463 456.239 725.536 452.437C724.516 448.354 725.812 445.666 728.505 442.51C736.016 433.703 742.969 424.427 750.114 415.338C750.578 414.781 751.042 414.224 751.505 413.666C751.781 413.76 752.151 413.76 752.432 413.854C752.802 418.396 752.989 423.036 753.542 427.578C754.562 433.515 753.078 438.802 749.182 443.531ZM755.026 452.901C754.75 452.901 754.562 452.807 754.286 452.807C754.286 452.062 754.286 451.323 754.286 450.583C754.562 441.677 756.234 433.328 761.239 425.724C763.005 423.036 764.026 419.88 765.323 416.916C765.599 417.005 765.88 417.099 766.062 417.192C764.208 429.62 760.776 441.583 755.026 452.901ZM755.771 431.38C755.401 426.838 755.489 422.755 754.656 418.864C753.359 412.646 754.656 407.359 757.812 401.89C761.151 395.953 763.281 389.37 765.88 382.968C766.25 382.041 766.62 381.021 767.083 379.817C771.812 389.463 764.672 422.015 755.771 431.38ZM767.734 363.771C767.364 362.75 767.083 362.01 766.901 361.265C765.51 356.166 764.114 351.067 762.724 345.963C762.542 345.317 762.26 344.666 762.354 344.015C763.099 337.526 763.838 331.031 764.672 324.078C768.01 333.817 770.703 358.765 767.734 363.771ZM769.312 377.682C769.312 374.625 769.312 371.562 769.401 368.5C769.776 368.5 770.239 368.5 770.609 368.5C770.609 371.656 770.609 374.713 770.516 377.87C770.146 377.87 769.682 377.776 769.312 377.682Z" fill="#F17C1D"/>
</svg>
